<?xml version="1.0" encoding="UTF-8" standalone="no"?>
<!-- Created with Inkscape (http://www.inkscape.org/) -->

<svg
   width="512"
   height="512"
   viewBox="0 0 135.46667 135.46667"
   version="1.1"
   id="svg5"
   xml:space="preserve"
   inkscape:version="1.2.1 (9c6d41e410, 2022-07-14, custom)"
   sodipodi:docname="Logo_Clean.svg"
   inkscape:export-filename="tmp/osd_convert/osd.png"
   inkscape:export-xdpi="96"
   inkscape:export-ydpi="96"
   xmlns:inkscape="http://www.inkscape.org/namespaces/inkscape"
   xmlns:sodipodi="http://sodipodi.sourceforge.net/DTD/sodipodi-0.dtd"
   xmlns="http://www.w3.org/2000/svg"
   xmlns:svg="http://www.w3.org/2000/svg"><sodipodi:namedview
     id="namedview7"
     pagecolor="#505050"
     bordercolor="#eeeeee"
     borderopacity="1"
     inkscape:showpageshadow="0"
     inkscape:pageopacity="0"
     inkscape:pagecheckerboard="0"
     inkscape:deskcolor="#505050"
     inkscape:document-units="mm"
     showgrid="false"
     inkscape:zoom="1.8801068"
     inkscape:cx="444.92153"
     inkscape:cy="182.43644"
     inkscape:window-width="3812"
     inkscape:window-height="2090"
     inkscape:window-x="3852"
     inkscape:window-y="54"
     inkscape:window-maximized="0"
     inkscape:current-layer="layer1" /><defs
     id="defs2" /><g
     inkscape:groupmode="layer"
     id="layer4"
     inkscape:label="Background"
     style="fill:#7f7f7f;fill-opacity:1" /><g
     inkscape:label="Logo"
     inkscape:groupmode="layer"
     id="layer1"
     style="display:inline"
     transform="matrix(3.4855314,0,0,3.5059708,-197.98945,0.69765412)"><path
       style="display:inline;fill:#c4e3b1;stroke:#000000;stroke-width:0.534443;stroke-linejoin:round;stroke-dasharray:none;stroke-opacity:1;paint-order:fill markers stroke"
       d="m 69.621438,38.069268 c -4.729395,-0.638424 -8.735043,-3.459048 -10.802289,-7.606555 -1.578828,-3.167597 -2.13623,-6.913143 -1.472688,-9.895958 1.030156,-4.630857 4.364723,-9.36252 8.902812,-12.6328534 4.042429,-2.913141 10.962941,-5.9017841 16.619254,-7.17707101 4.060859,-0.91557184 7.522061,-0.90688966 9.344534,0.0234399 0.942471,0.48110911 1.463924,1.05421651 1.974022,2.16956281 0.549598,1.2017146 0.795073,1.987389 0.988366,3.1633952 0.463994,2.8229676 0.209966,6.3088565 -0.74148,10.1749535 -2.020889,8.21165 -6.529246,15.137846 -12.162424,18.685157 -1.812458,1.141335 -4.417525,2.249031 -6.42807,2.73327 -1.765363,0.425186 -4.554545,0.587757 -6.222037,0.362659 z"
       id="path369"
       inkscape:label="inner" /><path
       id="path367"
       style="display:inline;fill:#a5d287;stroke-width:1.35834"
       d="M 166.19884,509.95691 C 83.18157,497.78226 21.460714,437.6903 4.3603508,352.38953 0.30390066,332.15496 -0.58579181,301.8409 2.3681577,284.51043 12.593754,224.51809 54.116632,159.83168 111.33559,114.75551 162.39374,74.532737 256.47681,31.080023 333.98051,11.925895 379.29601,0.72669686 422.68087,-2.7635997 448.01916,2.75152 c 16.05403,3.4943099 28.38589,9.712401 36.59727,18.453432 6.83285,7.273587 17.87274,31.375888 21.5827,47.119371 11.41779,48.452277 5.02747,115.651487 -17.62523,185.343217 -28.04329,86.27607 -75.87062,158.88662 -132.82486,201.65223 -57.15318,42.91501 -128.75252,63.55324 -189.5502,54.63714 z m 15.0672,-145.99141 c 31.60165,-6.94401 64.12941,-24.23739 92.15206,-48.99264 13.75944,-12.1551 45.70373,-45.43693 59.15286,-61.62964 34.08666,-41.04027 60.65811,-84.26287 70.27693,-114.31642 4.2553,-13.29544 5.61416,-27.71381 3.48799,-37.0096 C 398.49166,67.721718 343.42053,64.956952 257.05294,94.522679 219.1907,107.48385 168.91397,131.79838 143.4128,149.48064 c -39.57276,27.43937 -68.163417,65.24694 -78.073279,103.24215 -3.99144,15.3035 -4.945443,38.74168 -2.064749,50.72719 7.83372,32.5932 31.967448,54.92855 66.856728,61.87473 12.5793,2.50444 36.43747,1.87026 51.13454,-1.35921 z"
       inkscape:label="inner_highligth"
       transform="matrix(0.07441406,0,0,0.07441406,57.15,-1.6076342e-8)" /><path
       style="display:inline;fill:#7a3123;stroke:#000000;stroke-width:1.35834;stroke-opacity:1"
       d="m 128.06753,311.01188 c -12.55154,-3.54492 -16.87443,-6.67707 -20.1129,-14.5728 -8.472839,-20.65762 -10.750001,-51.1469 -5.4449,-72.90274 3.34379,-13.7127 11.38363,-30.58404 19.96403,-41.89384 40.26489,-53.0731 110.07104,-63.44092 159.02334,-23.61862 15.25958,12.41355 18.66181,17.9686 18.66181,30.47035 0,19.6329 -13.12081,44.96168 -36.37588,70.22103 -27.18391,29.52679 -55.62686,46.3612 -88.20197,52.20374 -15.17866,2.72236 -38.04497,2.76707 -47.51353,0.0929 z"
       transform="matrix(0.07441406,0,0,0.07441406,57.15,-1.6076342e-8)"
       id="path53716"
       inkscape:label="stone" /><path
       id="path54776"
       style="display:inline;fill:#3c701b;fill-opacity:1;stroke:none;stroke-width:1.80272;stroke-linejoin:round;stroke-dasharray:none;stroke-opacity:1;paint-order:fill markers stroke"
       d="M 418.21901,0.00121245 C 396.83669,-0.05274814 371.71132,2.996492 344.58893,9.1486137 269.03212,26.28702 176.59172,66.444893 122.59311,105.59419 61.973514,149.54376 17.430332,213.13343 3.6695501,275.36686 -5.1940083,315.4525 2.2476461,365.7909 23.337569,408.3598 c 27.614182,55.73777 81.127491,93.64022 144.302561,102.21992 22.27429,3.02504 59.52682,0.84102 83.10847,-4.87298 26.85678,-6.50762 61.65816,-21.3922 85.8689,-36.73045 C 411.86527,421.30448 472.08616,328.22515 499.08111,217.86992 511.7905,165.91397 515.18709,119.06818 508.98906,81.130705 506.40706,65.326518 503.12702,54.768556 495.7855,38.618879 488.97164,23.629894 482.00309,15.924014 469.4136,9.4584564 457.24134,3.2071709 439.60132,0.05517305 418.21901,0.00121245 Z M 454.01297,28.084227 c 20.24817,10.630723 28.24844,32.903496 23.33685,64.968379 -6.07038,39.629944 -27.91599,87.713574 -63.97564,140.816464 -19.70755,29.02213 -33.64086,46.1382 -60.06034,73.77073 -26.00687,27.20098 -43.97438,42.90256 -70.20068,61.34885 -29.1632,20.51197 -53.61258,31.84 -83.98871,38.91342 -15.99601,3.72486 -60.37881,4.96295 -74.70749,2.0844 C 86.645878,402.40055 47.926541,379.08961 32.569497,349.97557 16.361486,317.2919 19.713042,272.12421 41.70988,226.78494 64.004204,180.83248 99.208024,141.61506 145.03564,111.67134 193.42553,80.053443 270.36922,46.781342 332.05435,30.802393 373.82728,22.96892 419.45764,10.179527 454.01297,28.084227 Z"
       transform="matrix(0.07441406,0,0,0.07441406,57.150001,0)"
       inkscape:label="dark_green"
       sodipodi:nodetypes="ssssssssssssscsssssccsscc" /><path
       style="display:inline;fill:#652012;stroke-width:1.35834"
       d="m 127.36762,310.54248 c -4.94374,-1.35219 -10.61383,-3.704 -12.6002,-5.22629 -8.16024,-6.25369 -13.54558,-24.78571 -14.5143,-49.94656 -0.597605,-15.52166 -0.290306,-19.84555 2.12562,-29.90907 15.10571,-62.92253 80.62717,-104.56935 138.75816,-88.19761 22.70344,6.39407 49.86775,24.99868 56.6435,38.79466 2.20099,4.48138 2.57901,7.28358 2.06426,15.30232 -2.51593,39.19301 -54.8879,97.02161 -103.25084,114.00854 -21.80062,7.65721 -51.91743,9.90817 -69.2262,5.17401 z m 88.38712,-72.51152 c 29.98444,-15.48229 40.48144,-51.75506 20.91603,-72.2761 -22.18461,-23.26816 -67.12419,-8.93846 -79.10275,25.22316 -6.18046,17.62601 -0.83821,37.38435 12.43414,45.98776 8.49003,5.5034 13.55298,6.72574 25.51607,6.16025 9.59493,-0.45356 12.81979,-1.2655 20.23651,-5.09507 z"
       id="path347"
       sodipodi:nodetypes="sssssssssssssss"
       transform="matrix(0.07441406,0,0,0.07441406,57.15,-1.6076342e-8)"
       inkscape:label="stone_highligth" /></g></svg>
