<?xml version="1.0" encoding="UTF-8" standalone="no"?>
<!-- Created with Inkscape (http://www.inkscape.org/) -->

<svg
   width="1024"
   height="720"
   viewBox="0 0 1024 720"
   version="1.1"
   id="svg5"
   xml:space="preserve"
   inkscape:version="1.2.1 (9c6d41e410, 2022-07-14, custom)"
   sodipodi:docname="Logo_Sticker.svg"
   xmlns:inkscape="http://www.inkscape.org/namespaces/inkscape"
   xmlns:sodipodi="http://sodipodi.sourceforge.net/DTD/sodipodi-0.dtd"
   xmlns="http://www.w3.org/2000/svg"
   xmlns:svg="http://www.w3.org/2000/svg"><sodipodi:namedview
     id="namedview7"
     pagecolor="#505050"
     bordercolor="#eeeeee"
     borderopacity="1"
     inkscape:showpageshadow="0"
     inkscape:pageopacity="0"
     inkscape:pagecheckerboard="0"
     inkscape:deskcolor="#505050"
     inkscape:document-units="px"
     showgrid="false"
     inkscape:zoom="1.3053914"
     inkscape:cx="649.99664"
     inkscape:cy="515.5542"
     inkscape:window-width="3812"
     inkscape:window-height="2090"
     inkscape:window-x="3852"
     inkscape:window-y="54"
     inkscape:window-maximized="1"
     inkscape:current-layer="layer1" /><defs
     id="defs2"><inkscape:path-effect
       effect="bend_path"
       id="path-effect1219"
       is_visible="true"
       lpeversion="1"
       bendpath="#path1079"
       prop_scale="1"
       scale_y_rel="false"
       vertical="false"
       hide_knot="false" /><inkscape:path-effect
       effect="bspline"
       id="path-effect1081"
       is_visible="true"
       lpeversion="1"
       weight="33.333333"
       steps="2"
       helper_size="0"
       apply_no_weight="true"
       apply_with_weight="true"
       only_selected="false" /></defs><g
     inkscape:label="Avocado"
     inkscape:groupmode="layer"
     id="layer1"
     transform="matrix(1.2474362,0,0,1.2311465,71.549123,766.55922)"><path
       style="display:inline;fill:#c4e3b1;stroke:#000000;stroke-width:7.06118;stroke-linejoin:round;stroke-dasharray:none;stroke-opacity:1;paint-order:fill markers stroke"
       d="m 326.1635,-115.55937 c -62.30345,-8.4597 -115.07251,-45.83555 -142.30571,-100.7938 -20.79894,-41.97355 -28.14197,-91.60546 -19.40069,-131.13048 13.57093,-61.36308 57.49938,-124.06194 117.28263,-167.39684 53.2536,-38.60178 144.42208,-78.20403 218.93644,-95.10274 53.49638,-12.13217 99.09309,-12.01712 123.10173,0.3106 12.4158,6.37513 19.28524,13.96933 26.0051,28.74868 7.24022,15.92382 10.47402,26.33472 13.0204,41.91788 6.1125,37.4069 2.76602,83.59811 -9.76801,134.82742 -26.62251,108.81186 -86.01408,200.59028 -160.22366,247.59539 -23.87671,15.12373 -58.19498,29.80172 -84.68122,36.21833 -23.2563,5.6341 -60.00004,7.78831 -81.96701,4.80556 z"
       id="path369"
       inkscape:label="inner" /><path
       id="path367"
       style="display:inline;fill:#a5d287;stroke-width:1.33549"
       d="m 324.79465,-117.16676 c -81.3823,-12.00486 -141.88761,-71.25879 -158.65119,-155.36998 -3.97656,-19.95238 -4.84873,-49.84369 -1.95296,-66.93247 10.02421,-59.15571 50.72933,-122.94001 106.82139,-167.38756 50.0526,-39.66184 142.28277,-82.50857 218.26008,-101.39558 44.42304,-11.04302 86.95347,-14.48464 111.79274,-9.04643 15.73785,3.44558 27.82685,9.57695 35.87651,18.19608 6.69828,7.17215 17.52075,30.93833 21.15764,46.46226 11.19293,47.77657 4.92846,114.03864 -17.27811,182.75846 -27.491,85.07289 -74.3764,156.67083 -130.20896,198.84004 -56.02759,42.31653 -126.21683,62.66694 -185.81714,53.87518 z m 14.77046,-143.95545 c 30.97928,-6.84717 62.86643,-23.89938 90.33719,-48.3094 13.48845,-11.98558 44.80362,-44.80327 57.98788,-60.77016 33.41535,-40.46794 59.46349,-83.08776 68.89287,-112.72219 4.1715,-13.11003 5.5036,-27.32732 3.4193,-36.49348 -7.68973,-33.8172 -61.67627,-36.54341 -146.34291,-7.39 -37.11657,12.78042 -86.40313,36.75586 -111.40207,54.19153 -38.79341,27.05671 -66.82099,64.33702 -76.53568,101.80236 -3.91283,15.09008 -4.84805,38.2014 -2.02409,50.01976 7.67944,32.13866 31.33787,54.16253 65.54003,61.01184 12.33156,2.46951 35.71986,1.84418 50.12748,-1.34026 z"
       inkscape:label="inner_highligth" /><path
       style="display:inline;fill:#7a3123;stroke:#000000;stroke-width:1.33549;stroke-opacity:1"
       d="m 287.41431,-313.33735 c -12.30435,-3.49548 -16.5421,-6.58395 -19.71679,-14.36957 -8.30597,-20.36953 -10.53829,-50.43362 -5.33767,-71.88605 3.27794,-13.52147 11.15944,-30.15753 19.57086,-41.3096 39.4719,-52.33296 107.90326,-62.55619 155.89148,-23.28924 14.95905,12.24043 18.29428,17.71801 18.29428,30.04541 0,19.35911 -12.86241,44.33466 -35.65949,69.24175 -26.64854,29.11502 -54.53132,45.71466 -86.46489,51.47572 -14.87972,2.68439 -37.2957,2.72848 -46.57778,0.0916 z"
       id="path53716"
       inkscape:label="stone" /><path
       id="path54776"
       style="display:inline;fill:#3c701b;fill-opacity:1;stroke:none;stroke-width:1.77239;stroke-linejoin:round;stroke-dasharray:none;stroke-opacity:1;paint-order:fill markers stroke"
       d="m 571.85147,-620.01073 c -20.96121,-0.0532 -45.59175,2.9535 -72.17998,9.01983 -74.06877,16.8994 -164.68862,56.49724 -217.62377,95.10057 -59.42573,43.33666 -103.09166,106.03952 -116.58144,167.40506 -8.68899,39.52661 -1.3939,89.16301 19.28068,131.13825 27.07033,54.96047 79.52973,92.33434 141.46061,100.79439 21.83562,2.98285 58.35448,0.82929 81.47171,-4.80503 26.32785,-6.41686 60.44384,-21.09386 84.17777,-36.21821 73.76581,-47.00699 132.80069,-138.78826 159.264,-247.6045 12.45908,-51.23139 15.78878,-97.42388 9.71282,-134.83228 -2.53115,-15.58379 -5.7466,-25.99451 -12.94353,-41.91897 -6.67966,-14.77995 -13.51097,-22.37837 -25.85252,-28.75376 -11.93254,-6.16411 -29.22515,-9.27215 -50.18635,-9.32535 z m 35.08902,27.69137 c 19.8494,10.48247 27.69211,32.44463 22.87725,64.06235 -5.95083,39.07727 -27.3662,86.49034 -62.71568,138.85267 -19.31943,28.61739 -32.97833,45.49477 -58.8775,72.74194 -25.49468,26.82164 -43.10833,42.30425 -68.81812,60.49329 -28.58885,20.22592 -52.55672,31.39597 -82.33461,38.37075 -15.68098,3.67291 -59.18969,4.89373 -73.23617,2.05533 -37.02721,-7.48013 -74.984,-30.46598 -90.03859,-59.17401 -15.88881,-32.22787 -12.60326,-76.76566 8.96037,-121.47264 21.85525,-45.31162 56.36575,-83.98212 101.29082,-113.50825 47.43689,-31.17696 122.86522,-63.98506 183.33551,-79.74117 40.95024,-7.72423 85.68194,-20.33526 119.55672,-2.68026 z"
       inkscape:label="dark_green"
       sodipodi:nodetypes="ssssssssssssscsssssccsscc" /><path
       style="display:inline;fill:#652012;stroke-width:1.33549"
       d="m 286.72818,-313.8002 c -4.84637,-1.33333 -10.40479,-3.65235 -12.35204,-5.15341 -7.99953,-6.16647 -13.27881,-24.44005 -14.22845,-49.25001 -0.58584,-15.3052 -0.28459,-19.56879 2.08375,-29.49197 14.80822,-62.04503 79.03928,-103.11105 136.02541,-86.96763 22.25632,6.3049 48.88564,24.65006 55.52795,38.25364 2.15764,4.41889 2.52822,7.18201 2.0236,15.08892 -2.46638,38.64643 -53.80692,95.66857 -101.21738,112.4186 -21.37127,7.55043 -50.89495,9.77 -67.86284,5.10186 z m 86.6464,-71.50029 c 29.39392,-15.26638 39.68418,-51.0333 20.5041,-71.26816 -21.7477,-22.94367 -65.80222,-8.8138 -77.54487,24.87141 -6.05874,17.3802 -0.8217,36.86299 12.18926,45.34642 8.32282,5.42665 13.28606,6.63195 25.01354,6.07434 9.40597,-0.44723 12.56732,-1.24785 19.83797,-5.02401 z"
       id="path347"
       sodipodi:nodetypes="sssssssssssssss"
       inkscape:label="stone_highligth" /></g><g
     inkscape:groupmode="layer"
     id="layer2"
     inkscape:label="Text"
     transform="matrix(2.5277601,1.4728489,-1.4615918,2.6588444,114.36958,-1041.043)"
     class="UnoptimicedTransforms"><g
       id="g1207"
       inkscape:label="Text"
       inkscape:path-effect="#path-effect1219"
       class="UnoptimicedTransforms"
       transform="matrix(0.8977134,0.46915852,-0.45589867,0.93514152,372.76754,-2.7270215)"><path
         style="display:inline;fill:#000000;fill-opacity:0.29819;stroke-width:1.38771"
         d="m 92.690163,477.65902 c -6.134229,-0.64059 -8.81204,-3.66734 -12.325481,-13.86047 -3.299836,-9.5734 -3.090256,-19.2887 0.48076,-22.1445 8.275768,-6.61832 22.775628,-3.72106 27.923488,5.42931 2.35243,4.18147 3.2054,4.70038 7.11074,4.40387 8.39063,-0.63706 7.93182,4.17531 -0.0455,5.99521 -2.98473,0.68094 -4.22739,2.09636 -6.89652,7.80619 -4.19748,8.97932 -9.57175,13.06754 -16.247477,12.37039 z m 10.800587,-13.94655 c 0.2485,-3.11164 -0.1689,-3.35181 -6.19391,-3.3646 -9.347491,-0.0198 -10.721501,-2.48321 -3.730949,-6.93096 3.037256,-1.93246 5.190251,-3.89605 4.798632,-4.37538 -1.429416,-1.74961 -12.475007,-6.01254 -13.543445,-5.20966 -1.666342,1.25216 -2.289313,10.97246 -0.89118,14.06303 0.686067,1.51648 2.982752,4.54489 5.104559,6.73044 2.95923,3.04808 4.468265,3.64688 6.468915,2.57634 5.490438,-2.93785 7.171408,-2.98286 5.481068,-0.16519 -1.165202,1.94235 -1.079476,2.29061 0.32959,1.32625 1.05066,-0.719 2.02988,-2.81137 2.17672,-4.65027 z m 14.03469,-22.68359 c -2.36676,0.11602 -5.60058,-0.0605 -7.14954,-0.3961 -4.10261,-0.88887 -16.848287,-6.55895 -22.74131,-10.13351 -6.096885,-3.69822 -6.056334,-5.37293 0.341302,-10.13483 4.017562,-2.99026 4.15914,-2.97943 15.670498,3.68775 11.61905,6.72956 15.33048,8.3542 16.90683,7.19176 1.0552,-0.77811 -10.83037,-10.30538 -17.47855,-13.93365 -6.01398,-3.28217 -10.532987,-8.56562 -9.10344,-10.70221 0.577241,-0.8627 3.004044,-2.35364 5.39453,-3.30832 4.64533,-1.85526 7.58712,-0.3342 20.29907,10.89886 8.74442,7.7271 9.80978,9.65342 9.21139,15.99928 -0.63133,6.69493 -4.60694,10.50036 -11.35077,10.83095 0,0 0,10e-6 -1e-5,2e-5 z m 16.14682,-26.75067 c -2.84874,-1.30801 -12.1009,-5.877 -20.76948,-10.08402 -8.66858,-4.20702 -16.729607,-8.07493 -16.902984,-8.2922 -0.971547,-1.21747 0.847064,-6.77633 2.652428,-8.09201 2.165166,-1.5779 10.502216,0.81389 18.981156,4.64617 8.5063,3.84464 17.04155,9.08443 20.01015,12.97612 4.74283,6.21763 2.23169,11.69405 -3.97127,8.84594 z m 6.76407,-14.55788 c -10.53061,-1.76003 -26.88249,-23.71807 -24.99261,-34.54906 1.3725,-7.86565 12.3504,-15.81112 15.57918,-11.33976 1.66241,2.30208 -2.69887,8.4033 -5.82284,8.19029 -2.05446,-0.14008 -2.37961,0.69093 -1.53517,3.98295 1.88673,7.35529 10.36557,19.31987 15.85102,22.63578 4.37001,2.6417 5.40967,2.68067 8.87864,0.338 2.16637,-1.46305 4.02356,-3.89051 4.13875,-5.42344 0.27735,-3.69053 3.8543,-10.14562 5.44,-9.81856 2.69665,0.55619 2.39423,2.58144 -1.25911,11.42329 -4.36432,10.56258 -9.85243,15.63442 -16.27787,14.56054 0,-1e-5 0,-2e-5 1e-5,-3e-5 z m 20.93512,-29.81042 c -8.69732,-4.09374 -27.91234,-17.36055 -29.02114,-20.25905 -1.31747,-3.44401 3.16565,-9.25307 6.19273,-7.95731 1.2619,0.54016 1.71386,-0.71948 1.39925,-3.81153 -0.89327,-8.77945 2.20607,-16.86788 7.72944,-20.16227 1.66321,-0.99199 3.33196,-1.97702 5.0064,-2.95475 -0.15977,1.67417 -0.31212,3.34666 -0.45726,5.01754 -0.24528,2.82367 -0.002,8.53493 0.56784,12.96852 0.34029,2.64909 0.69342,5.29375 1.0589,7.93419 2.96737,0.40366 5.92323,0.82922 8.8664,1.27817 12.02243,1.83386 21.7603,6.19713 21.12457,8.75963 -0.34329,1.38369 -3.19066,1.92117 -9.61168,2.01134 -3.05386,0.0429 -6.11917,0.11559 -9.19481,0.21607 1.3294,1.78265 2.65716,3.56641 3.98327,5.35129 3.92382,5.28128 3.89773,5.41308 0.56163,9.61739 -3.36489,4.24061 -3.39682,4.25419 -8.20551,1.9908 -1e-5,-1e-5 -2e-5,-2e-5 -3e-5,-3e-5 z m 26.03632,-33.28431 c -0.30132,-3.72637 -1.53331,-6.61175 -4.4712,-10.24212 -1.36135,-1.68226 -2.72659,-3.36165 -4.09565,-5.0382 -2.32683,0.87814 -4.64881,1.77427 -6.96604,2.68747 -7.14836,2.81711 -13.62349,2.56738 -15.82342,-0.86197 -2.90329,-4.52578 -0.19697,-17.40699 5.21863,-23.41794 1.00078,-1.11077 3.97983,-2.54885 6.64687,-3.18924 4.27653,-1.02688 4.61884,-1.33541 2.75371,-2.97144 -1.46034,-1.28098 -1.55879,-3.68394 -0.62854,-5.82239 0.6562,-1.45644 1.79383,-2.78038 3.27617,-3.51978 2.67818,-1.3359 10.88839,2.23732 18.79995,7.44411 7.94601,5.22947 15.41289,11.95776 17.58956,16.40279 2.23364,4.56135 1.10677,9.04961 -2.23866,9.28763 -1.11074,0.079 -8.34474,-4.70018 -16.37877,-10.37931 -8.29538,-5.86388 -13.36403,-8.57395 -15.40886,-8.74826 -0.45957,-0.0396 -0.77926,0.0453 -0.96713,0.24949 -0.81422,0.88486 -2.33266,2.0656 -3.35655,2.61013 -2.31172,1.22941 -2.14671,13.39072 0.0718,15.09089 0.84468,0.64734 4.51353,0.37176 8.13658,-0.5593 2.02174,-0.51958 3.67215,-0.79587 5.04583,-0.78369 0,0 0,0 0,0 3.67664,0.0326 5.37317,2.11322 7.18123,7.20286 1.50964,4.24955 2.29405,7.72331 2.34711,10.51633 0.0584,3.98369 -1.38599,6.59275 -4.39524,8.19755 -1.68813,0.90026 -1.96211,0.4856 -2.33736,-4.15562 -1e-5,0 -2e-5,1e-5 -3e-5,1e-5 z m 28.66591,-32.35989 c -1.90796,-0.90083 -13.59172,-11.67246 -16.6399,-15.41469 -0.83908,-1.03013 -4.19286,-4.03179 -7.5872,-6.71465 -4.86664,-3.84661 -6.23931,-5.6307 -6.43962,-8.84751 -0.32863,-5.27769 5.74883,-8.39448 9.30494,-4.82814 1.206,1.20945 7.44031,6.24121 13.16598,10.81575 5.9797,4.77753 11.56313,9.6052 13.07688,11.08426 1.96719,1.92214 3.11204,2.02988 5.06368,0.48155 2.3759,-1.88489 5.63757,-1.08679 6.86029,1.63901 0.60487,1.34865 -8.29561,10.25249 -11.67022,11.68022 -1.54941,0.65553 -3.86291,0.70473 -5.13483,0.1042 z m 11.63451,-22.42847 c -19.07438,-8.3135 -26.01996,-14.65763 -18.06175,-20.86277 2.23199,-1.7403 4.28562,-1.59827 9.94041,0.9096 2.35942,1.04638 4.70445,2.10744 7.03592,3.18236 -1.15138,-2.05798 -2.30605,-4.11429 -3.46406,-6.16888 -4.32764,-7.67826 -5.98368,-14.67909 -3.81556,-16.46733 0.91329,-0.75327 3.68831,-1.61237 6.17591,-1.89988 1.50483,-0.17392 3.00703,-0.34184 4.50666,-0.50399 2.95623,6.95444 5.90199,13.91356 8.83746,20.87725 8.78143,20.83192 8.76134,20.90387 5.92285,22.8186 -4.99921,3.37224 -5.56286,3.13378 -17.07784,-1.88496 z m 27.42264,-20.57037 c -8.70153,-6.12538 -22.89503,-21.16649 -23.86848,-25.67096 -0.50447,-2.33553 1.57831,-5.56244 7.8354,-11.79189 8.74269,-8.70404 16.68041,-13.04441 14.64525,-8.44861 -0.5606,1.26594 -3.31976,4.24317 -6.11057,6.61814 -5.60693,4.7715 -5.52406,5.45601 0.15957,13.13991 1.30114,1.75905 2.59769,3.52073 3.8898,5.28494 1.92059,-1.91187 3.84864,-3.81572 5.78257,-5.71168 8.81863,-8.6455 10.96014,-5.66112 4.48275,3.55508 -1.74154,2.4779 -3.47295,4.96177 -5.192,7.4514 1.80197,1.27547 3.59648,2.55688 5.38397,3.84384 2.94938,2.12346 5.6276,3.78826 5.97674,3.68 0.3491,-0.10842 3.24848,-3.53679 6.48095,-7.59505 1.95908,-2.45955 3.92763,-4.91246 5.90301,-7.35866 -1.17804,-1.29478 -2.35884,-2.58795 -3.54253,-3.87941 -1.93448,-2.11057 -5.66718,-7.70306 -8.23226,-12.32907 -4.07115,-7.34216 -4.59324,-9.19051 -3.80937,-14.15514 1.15995,-7.34653 4.19404,-10.05497 13.38317,-11.8162 10.52632,-2.01749 13.16378,-0.24931 14.10544,8.77063 0.25094,2.40365 0.50304,4.80729 0.75638,7.21088 2.13236,-0.0588 4.25867,-0.11181 6.37909,-0.15967 7.19324,-0.16236 12.06987,1.66277 15.2335,5.58706 4.74185,5.88195 0.48681,10.27945 -5.32383,5.61036 -1.79674,-1.44377 -5.57256,-2.99129 -8.42219,-3.43978 -4.79632,-0.75487 -5.40765,-0.53589 -8.33378,2.99487 -2.55779,3.08632 -2.72074,4.20792 -0.89436,5.90964 1.24183,1.15707 3.05685,4.56989 4.04163,7.5903 1.48344,4.54984 1.26385,5.91887 -1.26582,8.01944 -2.46556,2.04731 -3.66566,2.26616 -6.25574,1.13763 -2.96942,-1.29382 -3.82556,-0.66478 -10.765,8.75588 -9.89757,13.43645 -12.32981,14.30136 -22.42329,7.19612 z m 25.465,-58.86313 c -1.96473,-2.07914 -1.82586,4.66991 0.20835,10.94966 1.13679,3.50934 1.30745,3.14866 1.36115,-2.59188 0.0341,-3.6423 -0.66804,-7.40384 -1.5695,-8.35778 z"
         id="path345"
         inkscape:original-d="m 139.69585,484.38266 c -4.13487,-4.24985 -4.37428,-8.30015 -1.09356,-18.50143 3.08387,-9.5892 8.85788,-17.11682 13.17319,-17.17401 9.95433,-0.13196 19.2086,11.04165 17.72603,21.4024 -0.6776,4.73531 -0.34197,5.67329 2.79983,7.82449 6.59715,4.51709 3.76312,8.25063 -3.57006,4.70322 -2.66092,-1.28719 -4.43845,-0.93616 -9.78857,1.93314 -8.40764,4.50907 -14.73716,4.44731 -19.24686,-0.18781 z m 16.09249,-4.39348 c 2.00626,-2.30557 1.82652,-2.7421 -2.65625,-6.4508 -6.95194,-5.75148 -6.50049,-8.53154 1.25899,-7.7529 3.38789,0.33996 6.14914,0.11253 6.1361,-0.50557 -0.0475,-2.253 -5.81663,-12.39245 -7.0641,-12.41549 -1.97502,-0.0365 -8.06613,7.24182 -8.82159,10.54089 -0.37031,1.61725 -0.42465,5.41598 -0.12074,8.44164 0.4239,4.21994 1.19131,5.617 3.29497,5.99837 5.78426,1.04868 7.06569,2.04198 4.16595,3.2292 -1.99791,0.81801 -2.13613,1.14549 -0.52686,1.24827 1.1999,0.0767 3.15,-0.97349 4.33353,-2.33361 z m 23.93841,-9.31166 c -1.88613,-1.35568 -4.23346,-3.46006 -5.21631,-4.67643 -2.64192,-3.26961 -8.84417,-15.41843 -11.188,-21.91478 -2.40277,-6.65973 -1.3886,-7.94161 6.15522,-7.78006 4.74615,0.10172 4.82042,0.1978 9.64593,12.48757 4.87066,12.40476 6.79681,15.94402 8.69622,15.9791 1.27145,0.0235 -2.27142,-14.7426 -5.197,-21.66025 -2.6465,-6.25776 -2.97409,-13.19017 -0.6621,-14.01079 0.93211,-0.33082 3.62356,-0.0354 5.98099,0.65658 4.60842,1.35266 5.90845,4.31607 9.18349,20.93369 2.25277,11.43057 1.98841,13.59265 -2.23627,18.29004 -4.44719,4.94477 -9.80741,5.54411 -15.16215,1.69532 z m 28.28186,-11.52119 c -2.96384,-5.49587 -18.33501,-36.75337 -18.34671,-37.30834 -0.0327,-1.55028 4.52553,-4.87242 6.63196,-4.83352 5.04706,0.0932 19.80272,27.66858 20.00778,37.39058 0.16424,7.78647 -5.0463,10.77172 -8.29303,4.75128 z m 13.81636,-7.72204 c -7.40937,-7.61542 -7.45281,-34.98093 -0.0677,-42.63038 5.36218,-5.55407 18.04814,-5.7546 18.16346,-0.28712 0.0601,2.8472 -6.62002,5.38073 -8.9374,3.38966 -1.51261,-1.29962 -2.21036,-0.81007 -3.36717,2.36237 -2.58298,7.08359 -2.68744,21.74508 -0.19679,27.63417 1.98017,4.6822 2.81433,5.33269 6.93596,5.4088 2.58517,0.0477 5.46021,-0.88831 6.41441,-2.08838 2.28755,-2.87693 8.78353,-6.20739 9.88973,-5.07042 1.91032,1.96345 0.59499,3.52831 -7.36645,8.76383 -9.5251,6.26381 -16.9733,7.13723 -21.46808,2.51749 z m 33.71748,-12.59418 c -5.08019,-8.4026 -13.08745,-29.78729 -12.36522,-33.02339 0.80234,-3.59499 7.31462,-5.87669 8.98766,-3.14898 0.70393,1.14767 1.71478,0.34858 3.05346,-2.41377 3.79366,-7.82812 10.19791,-12.96692 16.02599,-12.85931 l 5.29956,0.0979 -2.74609,4.05194 c -1.51034,2.22857 -4.16101,7.33064 -5.89036,11.33795 l -3.1443,7.28603 6.50043,5.80406 c 8.82992,7.88398 15.03322,16.54147 13.20744,18.43258 -0.98754,1.02287 -3.72907,0.0645 -9.16484,-3.20384 l -7.75581,-4.66329 0.51672,6.66099 c 0.50844,6.55424 0.43441,6.68947 -4.62058,8.43916 -5.08074,1.7586 -5.16776,1.72781 -7.90406,-2.79799 z m 38.85875,-14.92052 c 1.51459,-3.40424 1.80738,-6.52847 1.0432,-11.13195 l -1.0623,-6.39952 -6.93592,-1.10893 c -7.15921,-1.14464 -12.17951,-4.76191 -12.26549,-8.83762 -0.11218,-5.31823 8.16416,-15.04117 14.91895,-17.52659 1.26189,-0.46429 4.21684,-0.24359 6.56656,0.49049 3.7928,1.18488 4.1766,1.04204 3.41993,-1.27284 -1.00299,-3.06849 2.35786,-7.07301 5.88151,-7.00794 5.08115,0.0938 19.80303,27.68337 20.01009,37.49992 0.10709,5.07705 -2.66876,8.71126 -5.70175,7.46491 -0.99651,-0.40952 -5.28285,-7.87062 -9.5252,-16.58023 -5.3697,-11.02406 -8.2804,-15.61982 -9.57958,-15.12532 -1.02645,0.39067 -2.72582,0.69444 -3.77642,0.67504 -2.27752,-0.0421 -7.68022,10.6387 -6.67893,13.20378 0.38486,0.98596 3.46526,2.55796 6.84531,3.49337 6.90068,1.90965 8.28899,4.0999 7.26544,11.46219 -1.50529,10.82754 -4.70258,15.5782 -10.41347,15.47274 -1.8948,-0.035 -1.89606,-0.53671 -0.0119,-4.7715 z m 38.548,-16.16158 c -1.49658,-1.83983 -6.96971,-16.0028 -8.09955,-20.95942 -0.28837,-1.26511 -1.89781,-5.45974 -3.57652,-9.32136 -2.41598,-5.55769 -2.77832,-7.80407 -1.7383,-10.77725 1.70789,-4.88246 7.53448,-5.16689 9.05914,-0.44223 0.56616,1.75442 3.58875,8.62754 6.7169,15.2736 3.12813,6.64606 6.26372,13.56384 6.96799,15.37285 0.98755,2.5367 1.93985,3.08395 4.16291,2.39227 2.69472,-0.83841 5.23914,1.10846 5.35776,4.0995 0.0619,1.56289 -10.81654,6.35667 -14.36227,6.32895 -1.59863,-0.0125 -3.61825,-0.89761 -4.48806,-1.96691 z m 18.05943,-16.18197 c -13.49776,-14.9396 -16.12042,-23.64315 -7.89555,-26.20221 2.40301,-0.74765 3.96336,0.18 7.78475,4.62841 l 4.77934,5.56349 -0.86973,-7.01736 c -1.08345,-8.74157 -0.18078,-15.86545 2.1213,-16.74167 0.96469,-0.36717 3.47435,-0.16405 5.57704,0.45136 l 3.82308,1.11896 0.94127,22.65882 c 0.93858,22.59463 0.93245,22.66109 -2.1645,23.46453 -5.34586,1.38687 -6.0338,1.00016 -14.097,-7.92433 z m 30.03154,-9.70834 c -5.7843,-8.80622 -12.94512,-27.45225 -12.37168,-32.21461 0.28517,-2.36638 2.94135,-4.64053 9.84252,-8.42628 9.56216,-5.24546 17.45006,-7.01442 14.44922,-3.24041 -0.81726,1.02782 -3.92495,2.96927 -6.90599,4.3143 -5.95246,2.68574 -6.14073,3.33888 -3.59392,12.46737 l 1.74683,6.2611 6.50921,-3.54853 c 9.51289,-5.18598 11.26244,-2.20839 2.81046,4.78326 l -6.5408,5.41069 3.50715,5.35634 c 1.92895,2.94598 3.78017,5.36138 4.11384,5.36754 0.33368,0.006 3.82375,-2.34282 7.75571,-5.21996 l 7.14905,-5.23115 -2.02218,-4.75317 c -1.1122,-2.61424 -2.79134,-9.01139 -3.73143,-14.2159 -1.4835,-8.21302 -1.4077,-10.14401 0.57397,-14.62123 2.94606,-6.6561 6.16632,-8.28132 14.47648,-7.3061 9.56358,1.12234 11.44847,3.48303 9.91843,12.42225 l -1.2187,7.12028 5.64347,1.64432 c 6.38886,1.86148 10.26679,4.94161 12.07632,9.59191 2.69776,6.93296 -2.24262,10.04439 -6.2175,3.91575 -1.22042,-1.88171 -4.17763,-4.42555 -6.57157,-5.65301 -4.03914,-2.071 -4.62375,-2.0345 -8.11738,0.50694 -3.05116,2.21958 -3.49546,3.24229 -2.344,5.39572 0.78142,1.4614 1.47544,5.25005 1.54229,8.41923 0.10073,4.77568 -0.45656,6.02585 -3.25528,7.30245 -2.72436,1.24267 -3.84906,1.10064 -5.82079,-0.73509 -2.26174,-2.10574 -3.14515,-1.72317 -11.84934,5.13146 -12.38857,9.75608 -15.00451,9.7263 -21.55439,-0.24547 z m 38.09066,-48.11278 c -1.13915,-2.53964 -2.79313,3.91576 -2.69531,10.5197 0.0544,3.67212 0.29891,3.39832 1.85703,-2.07961 0.98692,-3.4697 1.36414,-7.26775 0.83828,-8.44009 z" /><path
         style="display:inline;fill:#000000;fill-opacity:0.600917;stroke-width:1.38771"
         d="m 93.299429,476.96788 c -3.5845,-0.0807 -6.772428,-1.16339 -8.070807,-2.7496 -3.544965,-4.33085 -7.617538,-20.64784 -6.669232,-26.61082 0.842206,-5.29583 1.206713,-5.73771 6.52036,-7.75861 8.546016,-3.25022 15.93163,-1.18357 21.76571,5.98956 4.10919,5.05235 5.45096,5.86044 9.68323,5.89296 7.01726,0.0539 6.22318,3.81428 -0.73779,5.05375 -4.62141,0.82289 -5.19628,1.23988 -5.7115,4.05656 -0.73577,4.02238 -5.64977,12.3604 -8.58971,14.56013 -1.25084,0.93594 -4.934408,1.63935 -8.190261,1.56607 z m 10.585601,-12.23264 c 1.83411,-3.93762 0.49663,-4.94151 -7.263489,-5.30644 -3.738875,-0.17584 -7.166995,-0.7526 -7.608175,-1.29096 -1.126029,-1.37402 5.633061,-6.195 9.607144,-6.87476 2.97614,-0.50909 3.02151,-0.75493 0.413459,-2.51472 -4.998856,-3.37299 -12.08043,-5.60189 -14.303516,-4.49927 -3.635494,1.80318 -2.573405,12.2803 1.859826,18.14247 3.863099,5.10824 9.124578,7.66635 10.189056,4.96378 0.296818,-0.75359 1.451692,-1.47328 2.56533,-1.59896 1.391415,-0.15707 1.537565,0.55475 0.462734,2.27695 -1.432743,2.29563 -1.386647,2.38322 0.603901,1.00564 1.19248,-0.8252 2.75575,-2.76198 3.47404,-4.30403 -1e-4,1e-4 -2e-4,2e-4 -3.1e-4,3e-4 z m 11.12883,-24.00735 c -7.32387,-0.45375 -24.880133,-8.1325 -29.000719,-12.77943 -2.655851,-2.99509 -2.560782,-3.41746 1.659395,-7.07749 4.157187,-3.60543 4.711652,-3.68948 7.675161,-1.23718 5.796603,4.79674 25.005373,13.8378 25.693173,12.06483 0.75974,-1.95845 -1.59544,-4.0417 -15.55535,-13.20537 -5.609332,-3.68211 -10.542997,-7.72771 -10.942585,-9.01663 -0.860168,-2.7744 3.449917,-6.34616 7.672265,-6.3509 3.06808,-0.003 12.99775,7.00924 21.852,15.46213 4.64664,4.43603 4.85135,5.06745 4.0166,11.47999 -1.09447,8.40771 -4.50306,11.19081 -13.06994,10.66005 z m 20.15432,-26.6534 c -2.06749,-0.46815 -11.20486,-4.83539 -19.9012,-9.16844 -8.75098,-4.36028 -17.262195,-8.79999 -18.082235,-9.82939 -1.215467,-1.52579 0.2166,-6.3608 2.350113,-7.90632 1.204062,-0.87179 8.812852,1.73432 16.766942,5.30466 7.99814,3.59012 16.20496,8.08496 19.06507,10.81862 3.63829,3.47744 5.81997,9.52406 3.9326,10.86594 -0.5009,0.35618 -2.35957,0.31612 -4.13129,-0.0851 z m 6.39418,-14.29493 c -4.54256,-0.16063 -10.12221,-4.79622 -17.83571,-14.91507 -7.26484,-9.53027 -9.6741,-16.70569 -7.47578,-22.61017 1.40931,-3.7853 8.407,-9.04741 12.28023,-9.23411 4.15654,-0.20034 2.7139,5.48581 -1.81565,7.69265 -2.05231,0.99991 -3.80943,2.83666 -3.9091,4.07475 -0.2416,3.001 9.18527,17.9538 14.07181,22.47038 5.26882,4.86994 11.29659,4.72195 14.53026,-0.25817 1.28839,-1.98423 2.55247,-5.20117 2.79239,-7.11752 0.47417,-3.7871 4.62396,-7.43363 5.40796,-4.79936 0.25949,0.87191 -1.46099,5.75115 -3.74171,10.83362 -4.36538,9.72796 -8.72011,14.0605 -14.3047,13.863 z m 20.58693,-29.30542 c -1.23597,-0.6767 -8.6562,-5.44244 -15.75399,-9.97701 -10.58749,-6.76405 -13.40062,-8.9388 -13.6705,-11.46534 -0.42432,-3.97264 3.28488,-8.10827 5.7598,-6.4543 1.26079,0.84256 1.78642,-1.06493 1.7542,-5.98954 -0.0563,-8.62566 3.00873,-16.23091 7.56706,-18.94818 1.09523,-0.65289 2.19287,-1.30276 3.29295,-1.9495 0.23233,4.10615 0.50044,8.20092 0.80222,12.28508 0.30178,4.08417 0.63725,8.15772 1.00429,12.22143 4.767,0.98421 9.50129,2.02288 14.19791,3.12171 8.53166,1.99606 14.58498,4.47741 15.52547,6.00461 0.85429,1.3872 1.33493,2.64457 1.06858,2.7943 -0.26654,0.1494 -4.91655,0.25913 -10.38386,0.3737 -5.47257,0.11466 -9.70955,0.66602 -9.38533,1.09506 0.3227,0.42723 2.53778,2.77424 4.89307,5.20649 4.84511,5.00339 4.7748,4.94802 -0.34631,9.65802 -3.04049,2.79643 -4.20084,3.18676 -6.32559,2.02344 1e-5,1e-5 2e-5,2e-5 3e-5,3e-5 z M 188.1014,338.0678 c -0.3488,-1.77609 -2.35403,-6.29664 -4.44734,-9.99495 -1.27197,-2.24723 -2.54417,-4.49432 -3.81662,-6.74125 -1.91408,0.56194 -3.8266,1.13615 -5.73752,1.7221 -14.55076,4.46177 -18.66146,3.67804 -18.41594,-5.92511 0.29401,-11.50159 5.97942,-19.53242 14.59285,-20.84851 3.66658,-0.56021 4.99298,2.76399 1.94253,4.37931 -3.01295,1.59538 -4.0045,11.18842 -1.67749,15.05909 1.08721,1.80837 2.69399,2.18315 5.50752,1.33406 4.2459,-1.28138 6.91674,-1.9452 8.81605,-1.71688 2.74693,0.3297 3.96107,2.5068 6.30316,7.52142 2.1353,4.57184 2.92506,6.92481 2.71829,9.25513 0,0 0,10e-6 0,10e-6 -0.0947,1.00956 -0.37854,2.01073 -0.82114,3.18544 -2.20987,5.86525 -4.11446,7.09795 -4.9644,2.77014 2e-5,0 3e-5,0 5e-5,0 z m 17.24754,-21.98312 c -1.6349,-0.68369 -7.51511,-4.80264 -13.99361,-9.33234 -5.65998,-3.95738 -14.62777,-10.20438 -17.90428,-12.64322 0,0 0,0 0,0 -1.77531,-1.33156 -2.94106,-2.29605 -3.17669,-2.70742 -0.36567,-0.63842 -0.2491,-1.70901 0.17986,-2.86559 0.73329,-1.90431 2.32366,-4.02102 3.9344,-4.81549 1.46016,-0.7198 8.90093,2.9443 16.32894,7.76879 7.49685,4.86919 14.79477,10.73897 17.10852,13.98309 2.92024,4.09449 3.80856,10.45781 1.64271,11.43659 -0.57369,0.2593 -2.42657,-0.1163 -4.11985,-0.82441 z M 216.5453,303.3789 c -1.98745,-0.84209 -8.91514,-7.09776 -15.64119,-13.44396 -6.72918,-6.34914 -13.52693,-13.04622 -14.64123,-15.22136 -1.54096,-3.00805 -0.24669,-5.86723 3.48796,-7.52687 0.75398,-0.33505 5.56794,2.55325 10.58077,6.50471 12.82508,10.10969 18.59832,15.28907 21.65111,17.47572 3.05278,2.18665 3.27962,1.45969 4.24829,0.34683 1.24242,-1.42739 2.56153,-1.73667 4.08586,-0.96254 2.8426,1.44361 0.82136,5.45363 -4.76521,10.15147 -5.07605,4.26853 -5.11923,4.32303 -9.00636,2.676 z m 14.52874,-20.06661 c -11.59635,-4.82907 -23.95205,-12.5173 -24.44797,-15.9051 -0.23323,-1.59323 0.964,-4.11451 2.67646,-5.60465 2.72089,-2.36767 3.92925,-2.35801 9.70289,0.41701 2.18309,1.04928 4.35347,2.11108 6.5118,3.18474 -1.20966,-3.53705 -2.41655,-7.07521 -3.6207,-10.61449 -3.84487,-11.30105 -3.30796,-12.95013 4.94763,-13.99002 3.39553,-0.42771 3.73457,0.12594 11.64567,20.12182 7.65258,19.34246 7.97296,20.67968 5.75131,22.56793 -3.99778,3.39783 -4.80149,3.30646 -13.16709,-0.17724 z m 26.97507,-20.61048 c -8.2832,-4.96057 -12.05837,-8.41579 -20.34131,-18.48331 -5.76414,-7.006 -6.81385,-8.85258 -5.86945,-11.13651 0.60248,-1.45702 4.77528,-6.01193 9.2065,-10.30831 4.42474,-4.29008 9.02563,-8.24744 10.34075,-8.66431 3.7944,-1.20271 1.89519,2.61648 -3.6969,7.81133 -2.04845,1.90295 -4.0922,3.81566 -6.12961,5.73833 1.63776,2.05849 3.26802,4.12144 4.89106,6.18866 2.67805,3.41092 5.05956,6.31621 5.31821,6.44098 0.25866,0.12476 2.93523,-2.19733 5.96883,-5.13419 5.02683,-4.86652 7.28355,-5.76768 8.10557,-3.41126 0.16543,0.47451 -1.9262,3.76395 -4.62,7.32711 -1.63291,2.15993 -3.25784,4.32513 -4.87316,6.49554 1.29611,1.02459 2.5882,2.05219 3.87646,3.08269 7.028,5.62172 7.94542,5.44471 14.60945,-2.61174 3.36406,-4.06696 6.06988,-7.58858 5.98107,-7.85211 -0.089,-0.26349 -1.88109,-2.47039 -3.99518,-4.89702 -5.54693,-6.36703 -11.31277,-17.67884 -11.59062,-23.00444 -0.48898,-9.3731 8.02436,-15.48073 20.11716,-14.34814 5.61196,0.52559 5.91428,0.82693 6.59886,5.85504 0.39513,2.90233 0.75668,6.67153 0.80052,8.35287 0.0698,2.67683 0.89737,2.95534 6.33524,2.31015 7.34296,-0.8714 14.75906,2.51575 16.27169,7.29666 1.5815,4.99859 -1.02576,6.54252 -5.51055,3.2798 -2.16198,-1.57288 -6.16331,-3.26801 -8.92954,-3.77328 -4.68561,-0.85586 -5.21262,-0.66731 -7.90968,2.83577 -1.58774,2.06226 -2.37339,4.4915 -1.74972,5.39596 0.62603,0.90794 2.38715,4.41006 3.92058,7.80145 2.52002,5.57336 2.49382,6.36488 -0.20382,8.33258 -2.304,1.68058 -3.87608,1.77457 -6.91246,0.42349 -2.16504,-0.96336 -3.99592,-1.14711 -4.0598,-0.41612 -0.11309,1.29426 -3.92385,6.55755 -7.95336,11.60673 -4.02562,5.04429 -8.29679,9.91664 -9.50821,10.29907 -1.36682,0.43152 -5.18321,-0.85398 -8.48858,-2.83347 z m 24.49298,-55.25866 c -0.46213,-3.33573 -1.58644,-6.04545 -2.75068,-6.60959 -1.96436,-0.95185 -1.89387,1.62882 0.43085,13.28102 0.82191,4.11968 1.08414,4.35164 2.02342,1.85303 0.59316,-1.57794 0.72672,-5.41881 0.29641,-8.52446 z"
         id="path343"
         inkscape:original-d="m 140.54205,484.20897 c -2.59131,-2.25613 -4.30945,-5.06343 -4.35266,-7.11186 -0.11854,-5.62 6.2619,-20.96604 10.43648,-25.10151 3.6944,-3.65979 4.22126,-3.77876 9.34678,-2.11066 8.25056,2.68516 12.61189,8.8374 12.80654,18.06539 0.13702,6.49619 0.67457,7.96409 3.8719,10.57326 5.22052,4.26013 2.59222,6.88513 -3.54151,3.5371 -3.98707,-2.17631 -4.65713,-2.20605 -6.70147,-0.29744 -2.91474,2.72122 -11.45876,6.2863 -14.9128,6.22252 -1.46959,-0.0271 -4.59858,-1.72669 -6.95326,-3.7768 z m 14.94351,-3.17154 c 3.67875,-1.98645 3.24894,-3.58611 -2.32092,-8.6379 -2.68074,-2.4314 -4.88606,-4.98942 -4.90072,-5.68449 -0.0373,-1.76736 7.77169,-1.43633 11.15661,0.47296 2.52771,1.42575 2.70345,1.255 1.77936,-1.72873 -1.77193,-5.72124 -5.75939,-11.82707 -8.04679,-12.32172 -3.75534,-0.81208 -9.03213,8.10001 -9.1466,15.44787 -0.0997,6.40094 2.30722,11.6436 4.66602,10.1632 0.65745,-0.41262 1.93298,-0.27272 2.8345,0.31096 1.12682,0.7295 0.82033,1.37959 -0.98058,2.07992 -2.40013,0.93332 -2.41158,1.03087 -0.13607,1.16357 1.3658,0.0797 3.65882,-0.48987 5.0956,-1.26569 z m 22.49919,-12.12956 c -5.36864,-4.8693 -14.01336,-21.5881 -14.38791,-27.82609 -0.23966,-3.99131 0.0764,-4.26037 5.35919,-4.56184 5.21169,-0.29743 5.67585,-0.031 6.47886,3.71818 1.56966,7.32878 10.91836,26.17956 12.4931,25.19124 1.73946,-1.09172 1.09612,-4.16742 -4.16528,-19.91349 -2.11384,-6.32617 -3.47864,-12.53452 -3.03286,-13.79631 0.95918,-2.71512 6.26761,-2.92405 9.46934,-0.37269 2.30753,1.83879 5.84575,13.44438 7.77233,25.49364 1.01204,6.32961 0.81317,6.96403 -3.62353,11.5595 -5.81093,6.01889 -10.13896,6.15323 -16.36324,0.50786 z m 31.32405,-9.02289 c -2.82145,-3.33289 -18.22387,-35.33089 -18.27964,-37.9753 -0.041,-1.94451 3.80934,-4.92519 6.29564,-4.87366 2.81213,0.059 17.05725,26.59956 18.40927,34.29979 0.86968,4.95312 -0.91014,11.11721 -3.19776,11.07497 -0.60864,-0.0112 -2.06102,-1.14785 -3.22751,-2.5258 z m 13.38199,-7.74279 c -3.54906,-2.79675 -5.27816,-9.82417 -5.54642,-22.5417 -0.25259,-11.97505 1.91598,-19.177 6.83308,-22.69308 3.13063,-2.23863 11.37289,-2.50962 14.44557,-0.47495 3.30142,2.18616 -0.79921,6.08113 -5.55439,5.27584 -2.1306,-0.36081 -4.49176,0.12112 -5.24702,1.07098 -1.81705,2.28521 -2.8294,19.96682 -1.5152,26.4647 1.41923,7.01727 6.34773,10.42705 11.8123,8.17235 2.17612,-0.89787 4.99319,-2.82374 6.26012,-4.27971 2.48263,-2.85303 7.88649,-3.5797 7.08854,-0.9532 -0.2668,0.87817 -4.35954,3.97345 -9.09499,6.87837 -9.04744,5.55005 -15.12766,6.51145 -19.48159,3.0804 z m 33.18875,-12.40214 c -0.75999,-1.44419 -4.10047,-9.11704 -7.42328,-17.0508 -4.81234,-11.49028 -5.76051,-14.98418 -4.66049,-17.17349 1.77153,-3.52571 6.79191,-4.89354 7.86557,-2.14302 0.54405,1.3937 1.95823,0.10991 4.44964,-4.03974 4.35008,-7.24516 10.46688,-12.02451 15.27581,-11.93571 l 3.48919,0.0644 -5.30865,10.89379 -5.30864,10.89381 9.90873,10.18428 c 5.99991,6.16674 9.93343,11.35414 9.9713,13.14976 0.0344,1.63102 -0.18583,2.96088 -0.48941,2.95527 -0.30358,-0.006 -4.34664,-2.26542 -8.98458,-5.02179 -4.63795,-2.75639 -8.39653,-4.56975 -8.35242,-4.0297 0.044,0.54004 0.64535,3.70121 1.33608,7.02481 1.41287,6.79818 1.42729,6.7769 -5.41122,7.97912 -4.04483,0.71111 -5.23438,0.38346 -6.35763,-1.75103 z m 38.42554,-14.22179 c 0.55323,-1.73375 0.98243,-6.64062 0.95376,-10.90418 l -0.0521,-7.7519 -5.49167,-1.32216 c -14.03736,-3.37958 -16.60094,-6.48536 -11.93848,-14.46342 5.67484,-9.71043 13.54907,-13.77906 20.856,-10.77638 3.06698,1.26036 2.79825,4.83332 -0.35917,4.77502 -3.00236,-0.0555 -8.14226,7.81483 -8.04719,12.32194 0.0445,2.10868 1.16562,3.24133 3.83815,3.87754 9.84111,2.3427 10.34143,2.96796 9.88102,12.34856 -0.35436,7.21994 -1.01579,9.14002 -4.08488,11.85785 -4.69489,4.15755 -6.87494,4.17213 -5.55548,0.0371 z m 24.6775,-11.52306 c -2.82144,-3.33289 -18.22386,-35.33089 -18.27964,-37.9753 -0.041,-1.94451 3.80934,-4.92518 6.29565,-4.87365 2.81211,0.059 17.05725,26.59956 18.40927,34.29978 0.86967,4.95312 -0.91013,11.11721 -3.19777,11.07498 -0.60863,-0.0112 -2.06102,-1.14786 -3.22751,-2.52581 z m 14.71184,-6.85866 c -2.88034,-3.25848 -13.91609,-33.76919 -14.0264,-38.77894 -0.0746,-3.38904 1.99528,-5.39866 5.49403,-5.33406 0.70909,0.0131 3.42098,4.66089 6.02648,10.32843 13.33203,29.00035 12.74574,27.97243 15.19895,26.64776 1.57291,-0.84934 2.81186,-0.64132 3.86079,0.64819 1.94064,2.38575 -1.14693,5.41077 -7.74961,7.59259 -5.96298,1.97042 -6.10208,1.95297 -8.80424,-1.10397 z m 19.68834,-12.94044 c -8.36929,-8.84086 -15.69736,-20.67755 -14.90434,-24.07426 0.36322,-1.55577 2.19828,-3.40831 4.07793,-4.11676 3.01639,-1.13691 3.92649,-0.65673 7.75378,4.09102 l 4.33625,5.37914 0.44637,-11.21651 c 0.47667,-11.97735 1.40455,-13.22207 8.40733,-11.27796 2.90228,0.80573 2.99541,1.42512 3.44927,22.94214 0.43886,20.80576 0.30615,22.17645 -2.24319,23.16878 -4.53838,1.76656 -5.34799,1.41653 -11.3234,-4.89559 z m 29.751,-10.02012 c -5.59873,-7.25269 -7.92843,-12.05605 -11.73996,-24.20537 -2.68031,-8.54348 -2.93854,-10.67942 -1.50862,-12.47776 1.81972,-2.28855 19.06621,-11.47668 21.45927,-11.43249 3.44176,0.0636 0.89779,3.08422 -5.22881,6.20857 l -6.68785,3.41058 2.27625,7.45347 c 1.25196,4.09943 2.4254,7.61869 2.60767,7.8206 0.18229,0.20191 3.10911,-1.12258 6.50406,-2.94332 5.61922,-3.01363 7.78784,-3.20806 7.84068,-0.70299 0.0105,0.50206 -2.68042,2.98366 -5.98003,5.51468 l -5.99926,4.60187 2.42768,4.15804 c 4.40403,7.54298 5.34528,7.68848 13.35047,2.06377 4.05031,-2.84587 7.35942,-5.40144 7.35355,-5.67901 -0.006,-0.27757 -0.9686,-2.91335 -2.13945,-5.85725 -3.07752,-7.73801 -4.90167,-20.22674 -3.70844,-25.38917 2.09447,-9.06142 10.81533,-12.30313 20.95089,-7.78782 4.72602,2.10539 4.92283,2.45469 4.21241,7.47641 -0.4099,2.8973 -1.07388,6.59949 -1.47559,8.22707 -0.63589,2.57636 0.006,3.09377 4.95755,3.99905 6.68828,1.22264 12.44682,6.50966 12.5526,11.52475 0.11046,5.23697 -2.63168,6.00829 -5.77785,1.62523 -1.51134,-2.10554 -4.63228,-4.85683 -6.93543,-6.11398 -3.91432,-2.1366 -4.41691,-2.10552 -7.70237,0.47609 -1.93314,1.51901 -3.26374,3.61577 -2.95684,4.65949 0.30686,1.0437 0.92674,4.90766 1.37747,8.58657 0.74151,6.05213 0.51302,6.80497 -2.40005,7.9078 -2.48291,0.93999 -3.90278,0.57235 -6.20543,-1.6067 -1.64223,-1.55407 -3.19403,-2.27095 -3.44848,-1.59307 -0.90548,2.41239 -19.05085,15.52443 -21.42318,15.48063 -1.3279,-0.0245 -4.2767,-2.4571 -6.55291,-5.40574 z m 36.35493,-45.04253 c 0.47531,-3.32137 0.21346,-6.23562 -0.63891,-7.11169 -1.43815,-1.47815 -2.04276,1.00669 -3.11694,12.80974 -0.37946,4.1694 -0.21664,4.47492 1.25735,2.35946 0.93129,-1.3366 2.05563,-4.96248 2.4985,-8.05751 z" /><path
         style="display:inline;fill:#000200;stroke-width:1.35834"
         d="m 95.182237,475.41984 c -1.728864,0.57895 -4.967614,0.51033 -7.189452,-0.15479 -3.768211,-1.12802 -4.205881,-1.69663 -6.508275,-8.3479 -3.127618,-9.03507 -3.879593,-13.4016 -3.382405,-19.69544 0.344515,-4.36151 0.942294,-5.23482 4.665541,-6.78203 10.572797,-4.39362 18.028954,-2.5662 22.689844,5.39502 2.3433,4.00257 3.42681,4.63927 8.11606,4.86591 6.9415,0.33549 7.07843,2.57467 0.55036,4.41339 -4.70538,1.32535 -5.295,1.87236 -7.33366,6.68699 -2.83482,6.69489 -7.58316,12.27101 -11.607995,13.61883 0,0 -1.8e-5,2e-5 -1.8e-5,2e-5 z M 102.26881,463.08 c 0.42593,-1.54256 0.8504,-3.08418 1.27371,-4.62488 -2.17966,-0.005 -4.363123,-0.007 -6.5499,-0.006 -8.086515,0.004 -10.841774,-2.45277 -5.584659,-5.11329 1.988858,-1.00653 4.754155,-2.1871 6.165296,-2.63311 5.072913,-1.6034 -3.744197,-7.45136 -11.904627,-7.80372 -3.857071,-0.16654 -3.928775,-0.0618 -4.576876,5.99099 -1.163116,10.86252 8.222588,22.46673 14.562221,17.91754 1.466523,-1.05235 2.212061,-1.17442 1.657411,-0.27133 -1.035498,1.68602 1.103934,3.14984 2.754424,1.88196 0.50658,-0.38915 1.50022,-2.79255 2.203,-5.33779 z m 8.28955,-24.02869 c -5.6599,-0.76893 -24.775526,-9.52486 -27.115246,-12.47053 -1.133861,-1.42751 5.668849,-8.85788 7.736584,-8.49514 0.877356,0.1539 3.767028,1.72439 6.426257,3.49703 7.475825,4.98336 19.712475,10.32866 21.798045,9.53552 2.54384,-0.96745 -2.40533,-5.62308 -15.8183,-14.55847 -5.768853,-3.84304 -9.93156,-7.37947 -9.750238,-8.33162 0.173779,-0.91259 2.150095,-2.66961 4.391268,-3.89787 4.599,-2.52044 6.28841,-1.73903 19.38624,9.47322 5.83624,4.99606 7.91252,7.49818 8.31208,9.8988 1.09296,6.56687 0.11335,9.4718 -4.38316,12.87984 -3.62058,2.74414 -5.64065,3.19507 -10.98353,2.46922 z m 5.57859,-34.25586 c -9.97492,-4.76945 -18.752729,-9.23704 -19.387496,-10.05688 -0.634893,-0.81999 -0.04088,-2.83641 1.325127,-4.47946 3.078239,-3.70255 6.398479,-3.1642 21.900519,4.32809 13.97604,6.75476 20.42259,14.43232 15.7971,17.81734 -0.95949,0.70218 -8.85016,-2.45225 -19.63525,-7.60909 z m 23.62178,-6.74969 c -3.01599,-0.14682 -5.2777,-1.57995 -8.95108,-5.69359 -10.25122,-11.47981 -14.70038,-18.33599 -15.07573,-23.65778 -0.5334,-7.56302 7.16725,-16.75973 12.88349,-15.35661 3.74351,0.91891 -0.0728,6.96965 -4.71275,7.64805 -2.76691,0.40454 -3.11117,1.04197 -2.37224,4.40422 0.47671,2.16907 3.66655,8.03913 7.10184,13.09175 5.32212,7.82775 6.92132,9.36696 10.87562,10.59819 6.4679,2.01389 9.76816,-0.12702 12.72401,-8.12891 2.93846,-7.95486 5.62732,-10.39326 4.82278,-5.01964 -0.6214,4.15059 -8.70252,19.09447 -11.33355,20.95185 -1.06021,0.74847 -3.7467,1.27032 -5.96239,1.16247 z m 13.98858,-33.27881 c -15.22458,-9.34767 -21.33638,-13.84735 -21.12729,-17.19628 0.19889,-3.18538 2.70388,-5.25337 5.75193,-4.74483 1.49057,0.24868 2.01838,-1.70248 1.91104,-6.70131 -0.17226,-8.02076 2.58966,-14.72245 7.31111,-17.82126 1.06764,-0.70073 2.13776,-1.39859 3.21041,-2.09347 -0.0624,2.97397 -0.10432,5.94171 -0.12672,8.90356 -0.11054,14.61064 0.93507,15.52699 11.39315,16.80532 8.83984,1.08051 17.72625,4.61276 19.33869,7.33829 0.4248,0.71804 -3.82626,1.41728 -9.48916,1.70613 -3.43537,0.17523 -6.88562,0.39014 -10.34904,0.64156 1.478,1.73947 2.95262,3.4815 4.42381,5.2261 4.76655,5.65236 4.70966,6.1036 0.0754,10.67497 -3.01825,2.97728 -3.16132,2.88655 -12.32332,-2.7388 0,10e-6 1e-5,10e-6 2e-5,2e-5 z m 33.01879,-25.44823 c -0.2033,-0.35935 -0.43255,-2.72085 -0.49029,-5.26042 -0.0741,-3.25902 -1.17738,-6.03408 -3.83106,-9.42307 -3.91118,-4.99497 -4.33642,-5.16764 -13.97356,-1.43924 -9.80647,3.79392 -13.51509,1.37673 -12.32759,-9.72062 0.90393,-8.44727 4.6159,-13.79151 11.16796,-16.12134 5.93686,-2.11106 8.38814,0.69719 3.77375,3.24639 -2.02587,1.11917 -3.0094,3.04021 -2.87103,5.58933 0.11572,2.13197 -0.35111,3.87256 -1.05136,3.87487 -1.7625,0.006 2.19736,6.55661 4.18325,7.02443 0.87604,0.20637 4.30144,-0.43554 7.57796,-1.37888 2.22735,-0.64127 3.71926,-0.94961 4.84332,-0.86759 1.46412,0.10665 2.32582,0.87356 3.43553,2.45671 2.72622,3.88929 4.22646,8.57763 4.30953,12.63189 0.0255,1.512 -0.14869,2.94229 -0.53735,4.22152 -1.24018,4.08192 -3.3355,6.71016 -4.20906,5.16602 z m 1.05592,-35.40215 c -5.71075,-3.93737 -12.05742,-8.29139 -15.02836,-10.45266 -1.6967,-1.24446 -2.75873,-2.09967 -2.93001,-2.41193 -0.28919,-0.52723 -0.08,-1.40982 0.48507,-2.35119 0.42384,-0.68689 1.03921,-1.40312 1.78648,-2.0327 3.99299,-3.36417 7.50818,-2.47059 21.69699,7.62684 12.83978,9.1374 17.36625,18.07623 12.18336,20.54588 -1.09583,0.52216 -8.2618,-4.07663 -18.19353,-10.92424 z m 24.4028,-3.5757 c -2.34879,-1.8267 -8.14468,-7.44411 -13.41037,-12.6505 -5.33051,-5.27048 -10.58563,-10.58431 -11.80371,-12.38635 -1.51673,-2.24388 -1.55665,-3.94484 -0.0928,-5.70853 2.94405,-3.547 2.79396,-3.61664 9.27054,1.7066 20.54621,16.88732 25.39176,21.15802 28.37491,19.79214 4.98533,-2.28261 5.66371,1.12199 1.47891,5.18966 -6.04586,5.87662 -9.90775,7.0977 -13.81751,4.05698 z m 17.37563,-18.552 c -15.2398,-6.07711 -24.16606,-12.50054 -22.5278,-17.92064 1.12649,-3.7269 5.52878,-4.37235 11.90486,-1.57891 2.06071,0.90282 4.10967,1.8178 6.14753,2.74431 -1.16209,-2.94949 -2.32526,-5.89847 -3.48952,-8.84695 -4.22399,-10.69722 -4.28416,-13.20931 -0.21022,-14.76883 6.2129,-2.37829 7.0488,-1.34834 14.58083,18.09913 3.97479,10.26277 7.0431,19.38234 6.8449,20.25427 -0.19781,0.87025 -1.53079,2.38744 -2.95244,3.3713 -1.93366,1.33821 -4.54207,0.94164 -10.29814,-1.35368 z m 24.96144,-21.56502 c -9.04816,-6.18528 -23.85693,-22.41437 -23.76384,-26.47983 0.029,-1.26599 4.12501,-5.84823 8.66246,-10.14969 4.53909,-4.30301 9.45721,-8.27018 11.02503,-8.51592 1.36399,-0.21379 -0.44345,2.14687 -4.02431,5.33694 -3.55134,3.16376 -6.20267,6.44831 -5.91432,7.26946 0.88142,2.51011 9.25896,12.03192 10.23687,11.63851 0.50344,-0.20251 2.2383,-1.76025 3.8536,-3.44923 1.62215,-1.69613 4.51274,-3.6184 6.4385,-4.28501 3.06349,-1.06042 2.75517,-0.3431 -1.80549,5.25815 -2.90273,3.56506 -5.05373,7.0903 -4.81355,7.82287 0.23893,0.72794 2.82654,2.98212 5.71653,5.02179 1.753,1.23722 3.49881,2.48034 5.2379,3.72895 1.17271,-1.41866 2.34948,-2.83498 3.52979,-4.24897 1.99784,-2.39336 4.94606,-5.73332 6.77713,-7.68485 2.31954,-2.47213 2.80346,-4.11371 1.69324,-5.83673 -12.2767,-19.05314 -14.42566,-23.81642 -12.35621,-30.88425 1.73533,-5.92674 6.41294,-8.99255 14.4592,-9.41566 8.30819,-0.43688 10.36928,1.23426 10.37977,7.94414 0.0126,8.06928 0.2289,8.24014 7.5267,7.94519 7.53608,-0.30459 13.67642,2.52809 14.90849,6.74493 1.38797,4.75042 -0.21285,5.22375 -6.31102,1.97648 -7.40143,-3.94125 -12.64429,-3.72945 -16.53126,0.64382 -2.21743,2.49485 -2.49855,3.92253 -1.15433,5.77266 0.98594,1.35699 2.68617,4.2905 3.79257,6.54288 3.29432,6.70645 -0.99658,11.89029 -7.424,9.13453 -2.56734,-1.10074 -3.4474,-0.44603 -8.06241,6.26436 -10.19044,14.81732 -14.34742,17.18839 -22.07704,11.90447 0,0 0,1e-5 0,1e-5 z m 26.61353,-47.31627 c 0.74825,-5.88146 -0.94133,-12.85085 -3.28178,-13.37244 -2.33886,-0.52125 -2.49273,1.35273 -0.82474,10.68307 1.70681,9.5474 3.12665,10.39119 4.10652,2.68937 z"
         id="path341"
         class="UnoptimicedTransforms"
         inkscape:original-d="m 140.02254,484.13278 c -1.56667,-0.60785 -3.83348,-2.68191 -5.03735,-4.609 -2.03882,-3.26361 -2.03181,-4.00787 0.10239,-10.85601 2.89719,-9.29654 4.85833,-13.33322 8.80589,-18.12528 2.74071,-3.32707 3.67018,-3.65945 7.23483,-2.58718 10.13231,3.04783 14.53958,9.17652 13.3407,18.55136 -0.60205,4.70785 -0.18342,5.91183 3.13326,9.01134 4.87395,4.55482 3.78501,6.53615 -2.16028,3.9307 -4.22498,-1.85152 -4.96696,-1.78244 -9.2372,0.86012 -5.9318,3.67079 -12.54761,5.23414 -16.18222,3.82395 z m 12.16576,-5.60745 3.58959,-2.96147 -4.73706,-4.0954 c -5.84694,-5.05495 -6.37533,-8.76074 -1.08962,-7.64195 2.00608,0.42461 4.69191,1.19585 5.96851,1.71385 4.62049,1.87482 1.55374,-8.39624 -4.11294,-13.77501 -2.68058,-2.54438 -2.79408,-2.51059 -6.72328,2.00146 -7.05349,8.09977 -6.92605,23.39681 0.19709,23.65648 1.65698,0.0604 2.26292,0.42686 1.34651,0.81437 -1.712,0.72393 -1.01064,3.24915 0.90243,3.24915 0.58805,0 2.6845,-1.33266 4.65877,-2.96148 z m 19.95528,-14.35841 c -3.7804,-4.20417 -12.57643,-23.11344 -12.57643,-27.03619 0,-1.84991 9.176,-3.66508 10.47915,-2.07295 0.54815,0.6697 1.75215,3.74896 2.67554,6.84278 2.60354,8.72307 8.52777,20.62975 10.59022,21.28451 2.46304,0.78192 1.41226,-6.07149 -3.32163,-21.66448 -2.03603,-6.70645 -3.04448,-12.17081 -2.36852,-12.83404 0.64742,-0.63524 3.09175,-0.84194 5.43185,-0.45934 4.80313,0.78531 5.56261,2.46143 8.92247,19.6914 1.49855,7.68485 1.63394,10.99417 0.54066,13.21564 -2.9777,6.05044 -5.43094,7.83249 -10.78254,7.83249 -4.29568,0 -6.07589,-0.89093 -9.59077,-4.79982 z m 23.88602,-24.54366 c -4.73516,-10.018 -8.60936,-19.08313 -8.60936,-20.14473 0,-1.06161 1.57438,-2.34465 3.49865,-2.8512 4.33834,-1.14204 6.36419,1.34603 13.78197,16.92657 6.67502,14.02043 7.46163,24.28388 1.86115,24.28388 -1.14359,0 -5.41267,-7.38285 -10.53241,-18.21452 z m 21.82025,8.69175 c -2.25777,-1.91753 -3.18964,-4.46977 -3.68244,-10.08561 -1.37404,-15.65797 -0.86,-24.06498 1.75438,-28.69332 3.72962,-6.60264 14.36617,-9.74797 17.89281,-5.29108 2.32224,2.93482 -3.7332,5.86856 -7.61527,3.68947 -2.29231,-1.28673 -2.88386,-0.96045 -4.15432,2.29134 -0.81477,2.08545 -1.62721,8.90321 -1.80545,15.1506 -0.27642,9.6889 0.0855,11.93866 2.46169,15.30232 3.89212,5.5096 7.75207,5.66503 14.49802,0.58384 6.54308,-4.92841 10.27935,-5.78479 6.59161,-1.51087 -2.85045,3.30357 -17.35349,11.13049 -20.62445,11.13049 -1.26164,0 -3.6541,-1.15523 -5.31658,-2.56718 z m 29.29932,-19.97512 c -7.06901,-16.51373 -9.12719,-24.04169 -7.29259,-26.67322 1.80679,-2.5916 4.75299,-2.92609 6.80609,-0.77271 1.00128,1.05019 2.41812,-0.31367 4.85309,-4.67157 3.90083,-6.98139 9.24089,-11.25325 14.26416,-11.41088 l 3.42165,-0.1074 -4.33691,7.7011 c -7.11491,12.63401 -7.0723,13.99542 0.65028,20.77693 6.4356,5.65135 12.09623,13.43052 12.09623,16.62332 0,0.85162 -3.90955,-0.70553 -8.68788,-3.46033 l -8.68789,-5.00871 0.87819,6.94347 c 0.94563,7.47668 0.70007,7.89025 -5.51397,9.28644 -4.03688,0.90703 -4.1791,0.75175 -8.45045,-9.22647 z m 39.74636,-4.65362 c 0,-0.42055 0.92707,-2.64496 2.06016,-4.94315 1.45653,-2.95416 1.80295,-5.97755 1.18229,-10.31851 -0.92538,-6.4723 -1.15932,-6.65702 -10.5373,-8.3213 -9.62554,-1.7082 -11.04703,-5.91383 -5.06101,-14.97356 4.59687,-6.95726 9.71786,-9.75217 15.70866,-8.57341 5.20317,1.02381 6.38301,4.76987 1.50229,4.76987 -2.04097,0 -3.63169,1.21713 -4.64783,3.55624 -0.84968,1.95593 -1.98997,3.26772 -2.53398,2.91508 -1.35694,-0.87959 -1.25747,6.92657 0.1065,8.35714 0.60258,0.63201 3.58684,1.77969 6.63169,2.55038 4.7484,1.2019 5.59867,1.97684 5.97597,5.44655 0.71878,6.60993 -1.06854,13.43397 -4.44652,16.97695 -2.92769,3.07067 -5.94092,4.36794 -5.94092,2.55772 z m 16.56739,-31.36108 c -4.73516,-10.01799 -8.60936,-19.08312 -8.60936,-20.14473 0,-1.0616 1.57439,-2.34465 3.49865,-2.85119 4.33834,-1.14204 6.36419,1.34603 13.78197,16.92657 6.67502,14.02042 7.46163,24.28388 1.86116,24.28388 -1.1436,0 -5.41268,-7.38285 -10.53242,-18.21453 z m 21.4525,7.43335 c -2.70864,-5.63659 -10.34944,-29.47401 -10.89392,-33.9863 -0.32997,-2.7347 0.27546,-4.31479 2.0308,-5.30011 3.53637,-1.98504 3.38305,-2.11565 6.5333,5.56498 9.9938,24.36589 13.09458,30.148 16.09969,30.0215 4.90915,-0.20665 4.55417,3.21463 -0.56636,5.45863 -7.26349,3.1831 -11.07257,2.67575 -13.20351,-1.7587 z m 21.20761,-10.55364 c -10.81993,-11.4686 -15.52464,-21.19639 -12.38859,-25.61546 2.15939,-3.04283 5.81564,-1.88721 10.0562,3.17843 l 4.11641,4.91731 v -9.67247 c 0,-11.70723 0.75177,-14.07979 4.4525,-14.05207 5.68163,0.0426 6.02349,1.26831 6.26676,22.469 0.12825,11.1761 -0.13286,20.94132 -0.58021,21.70049 -0.44735,0.75918 -2.0731,1.72584 -3.6128,2.14815 -2.07428,0.56893 -4.22695,-0.74527 -8.31027,-5.07338 z m 27.88993,-11.70427 c -5.97842,-9.08131 -13.19191,-29.42117 -11.85799,-33.436 0.78709,-2.36899 18.55707,-11.70363 21.24187,-11.15845 1.16812,0.2372 -0.94304,1.92076 -4.75793,3.79422 -3.77179,1.85229 -6.85779,4.0883 -6.85779,4.96889 0,2.69741 4.17274,14.61993 5.09844,14.56747 0.47854,-0.0271 2.36221,-0.94393 4.18592,-2.03738 1.82371,-1.09345 4.78394,-2.01028 6.57828,-2.03738 2.83427,-0.0428 2.44436,0.54403 -2.97113,4.47184 -3.42844,2.48663 -6.23945,5.15833 -6.24668,5.93712 -0.007,0.77877 1.52188,3.78529 3.39801,6.68113 l 3.41115,5.26515 4.21529,-2.96377 c 2.31841,-1.63007 5.88541,-4.01057 7.92667,-5.29001 2.66525,-1.67054 3.51941,-3.11049 3.03028,-5.10848 -5.39568,-22.04044 -5.75516,-27.47126 -2.22072,-33.55062 3.01117,-5.17933 7.67685,-6.69177 14.60614,-4.73477 7.18002,2.02782 8.5588,4.19065 6.83121,10.71589 -2.06641,7.80504 -1.94891,8.06426 4.47233,9.86557 6.64207,1.86325 11.349,6.33368 11.349,10.77878 0,4.99537 -1.54465,5.0295 -6.07745,0.13425 -5.48955,-5.9285 -10.08344,-7.23213 -14.58464,-4.13877 -2.56605,1.76346 -3.18579,3.05917 -2.50853,5.24475 0.49471,1.59646 1.20193,4.9458 1.57159,7.44296 1.0996,7.42805 -4.00502,11.24132 -8.86849,6.62496 -1.93133,-1.83319 -2.84965,-1.45276 -8.66982,3.59164 -12.85157,11.13864 -17.26952,12.00478 -22.29501,4.371 z m 35.63646,-37.16776 c 2.17658,-5.46376 2.53435,-12.69907 0.68713,-13.89646 -1.84635,-1.19685 -2.45478,0.56425 -3.48065,10.07455 -1.04477,9.68564 -0.0724,11.016 2.79352,3.82191 z"
         transform="matrix(1.0302656,0.01902402,0.02137672,1.0134367,-11.034038,-6.9356352)" /></g><path
       class="UnoptimicedTransforms"
       style="display:none;fill:none;stroke:#000000;stroke-width:0.416019px;stroke-linecap:butt;stroke-linejoin:miter;stroke-opacity:1"
       d="m 124.23678,435.6532 c 38.63236,-39.85473 77.26365,-79.70835 116.10547,-108.88961 38.84182,-29.18126 77.8906,-47.68763 116.93967,-66.19414"
       id="path1079"
       inkscape:path-effect="#path-effect1081"
       inkscape:original-d="m 124.23678,435.6532 c 38.63249,-39.8546 77.26378,-79.70823 115.89644,-119.56352 39.05087,-18.50732 78.09965,-37.01369 117.1487,-55.52023"
       inkscape:label="bend_path"
       transform="matrix(0.99734558,0.72016005,-0.54687295,1.0138514,334.0362,-121.96073)"
       sodipodi:nodetypes="ccc" /></g></svg>
