<?xml version="1.0" encoding="UTF-8" standalone="no"?>
<!-- Created with Inkscape (http://www.inkscape.org/) -->

<svg
   width="512"
   height="512"
   viewBox="0 0 512 512"
   version="1.1"
   id="svg5"
   xml:space="preserve"
   inkscape:version="1.2 (dc2aedaf03, 2022-05-15)"
   sodipodi:docname="Logo.svg"
   xmlns:inkscape="http://www.inkscape.org/namespaces/inkscape"
   xmlns:sodipodi="http://sodipodi.sourceforge.net/DTD/sodipodi-0.dtd"
   xmlns="http://www.w3.org/2000/svg"
   xmlns:svg="http://www.w3.org/2000/svg"><sodipodi:namedview
     id="namedview7"
     pagecolor="#505050"
     bordercolor="#eeeeee"
     borderopacity="1"
     inkscape:showpageshadow="0"
     inkscape:pageopacity="0"
     inkscape:pagecheckerboard="0"
     inkscape:deskcolor="#505050"
     inkscape:document-units="px"
     showgrid="false"
     inkscape:zoom="6.4529622"
     inkscape:cx="190.06775"
     inkscape:cy="400.59122"
     inkscape:window-width="3812"
     inkscape:window-height="2090"
     inkscape:window-x="3852"
     inkscape:window-y="54"
     inkscape:window-maximized="1"
     inkscape:current-layer="layer2" /><defs
     id="defs2" /><g
     inkscape:label="Avocado"
     inkscape:groupmode="layer"
     id="layer1"><path
       style="fill:#c4e3b1;stroke-width:1.35834"
       d="M 167.63695,510.58298 C 104.46182,502.00327 50.95447,464.09726 23.340261,408.35943 2.2503166,365.79049 -5.1954413,315.45456 3.668126,275.36888 17.428922,213.13538 61.971991,149.54714 122.59165,105.59753 176.59031,66.44819 269.03433,26.284189 344.59121,9.145766 398.83605,-3.1584898 445.07069,-3.0418111 469.41524,9.4607725 c 12.5895,6.4655645 19.55506,14.1674835 26.36893,29.1564835 7.34152,16.149693 10.62056,26.708273 13.20256,42.512475 6.19803,37.937509 2.80473,84.783939 -9.90467,136.739939 -26.99498,110.35534 -87.21748,203.43563 -162.46533,251.10749 -24.21076,15.33826 -59.00918,30.22446 -85.86598,36.73208 -23.58168,5.71401 -60.83949,7.89879 -83.1138,4.87374 z"
       id="path369" /><path
       style="fill:#a5d287;stroke-width:1.35834"
       d="M 166.19884,509.95691 C 83.18157,497.78226 21.460714,437.6903 4.3603508,352.38953 0.30390066,332.15496 -0.58579181,301.8409 2.3681577,284.51043 12.593754,224.51809 54.116632,159.83168 111.33559,114.75551 162.39374,74.532737 256.47681,31.080023 333.98051,11.925895 379.29601,0.72669686 422.68087,-2.7635997 448.01916,2.75152 c 16.05403,3.4943099 28.38589,9.712401 36.59727,18.453432 6.83285,7.273587 17.87274,31.375888 21.5827,47.119371 11.41779,48.452277 5.02747,115.651487 -17.62523,185.343217 -28.04329,86.27607 -75.87062,158.88662 -132.82486,201.65223 -57.15318,42.91501 -128.75252,63.55324 -189.5502,54.63714 z m 15.0672,-145.99141 c 31.60165,-6.94401 64.12941,-24.23739 92.15206,-48.99264 13.75944,-12.1551 45.70373,-45.43693 59.15286,-61.62964 34.08666,-41.04027 60.65811,-84.26287 70.27693,-114.31642 4.2553,-13.29544 5.61416,-27.71381 3.48799,-37.0096 C 398.49166,67.721718 343.42053,64.956952 257.05294,94.522679 219.1907,107.48385 168.91397,131.79838 143.4128,149.48064 c -39.57276,27.43937 -68.163417,65.24694 -78.073279,103.24215 -3.99144,15.3035 -4.945443,38.74168 -2.064749,50.72719 7.83372,32.5932 31.967448,54.92855 66.856728,61.87473 12.5793,2.50444 36.43747,1.87026 51.13454,-1.35921 z m -46.23613,-50.34208 c -11.29483,-2.58167 -20.37372,-6.37701 -23.43578,-9.7971 -4.35958,-4.86931 -9.57984,-20.05249 -11.751549,-34.17947 -1.997636,-12.99466 -1.020364,-35.62371 2.055839,-47.60382 5.40474,-21.04846 20.20412,-44.74333 37.17232,-59.51554 42.98454,-37.42159 98.57955,-39.72145 141.82844,-5.86716 11.53668,9.03066 15.88038,13.83113 18.52619,20.47441 7.55473,18.96879 -7.65347,53.15816 -37.65273,84.64662 -28.13188,29.52839 -56.18396,45.37457 -89.70685,50.67403 -12.33011,1.94921 -31.03705,2.53917 -37.03588,1.16803 z"
       id="path367" /><path
       style="fill:#a1b58b;stroke-width:1.35834"
       d="M 166.19884,509.95691 C 122.28766,503.51725 85.28961,484.64285 56.100493,453.79071 40.314141,437.10494 31.153952,423.83893 21.746155,404.03789 8.2018281,375.5305 2.1319768,350.72542 0.83758961,318.59286 -0.45796074,286.43141 4.7287383,262.47667 20.343361,228.50557 45.130458,174.57889 88.182326,126.81885 142.70081,92.767058 196.23336,59.331061 272.37559,27.150827 333.98051,11.925895 379.29601,0.72669686 422.68087,-2.7635997 448.01916,2.75152 c 16.05403,3.4943099 28.38589,9.712401 36.59727,18.453432 6.83285,7.273587 17.87274,31.375888 21.5827,47.119371 11.41779,48.452277 5.02747,115.651487 -17.62523,185.343217 -36.14415,111.19858 -101.15029,193.63244 -183.00261,232.06443 -46.61627,21.88766 -96.35677,30.53328 -139.37245,24.22494 z m 25.97072,-102.28315 c 29.92806,-5.23499 58.00461,-17.34414 86.98921,-37.51761 30.98187,-21.56361 49.27787,-37.49632 77.36947,-67.37576 C 428.68618,226.03012 481.52794,124.52338 477.33596,70.713988 475.73619,50.178814 468.69928,37.694682 454.13465,29.55265 442.78823,23.209695 430.22518,20.791435 408.91856,20.849023 365.27944,20.966976 310.94739,34.525474 246.44225,61.394795 162.65127,96.297552 112.67183,129.50252 76.908366,174.02847 34.693437,226.58656 15.63374,285.20111 26.357841,329.48717 c 8.057272,33.27317 37.863777,61.93035 76.839979,73.87707 10.13819,3.1075 28.38046,6.78829 37.80061,7.62714 10.73128,0.9556 36.17045,-0.69371 51.17113,-3.31762 z M 131.0509,312.5732 c -17.51333,-4.3055 -21.47861,-7.77648 -26.34497,-23.06088 -4.986857,-15.66286 -6.588171,-27.861 -5.830302,-44.41268 1.482922,-32.38631 16.723032,-62.61369 42.461592,-84.21877 12.69921,-10.65978 30.80949,-20.41625 45.6251,-24.57941 15.24138,-4.2828 39.83204,-4.33346 53.89406,-0.11101 25.22462,7.57426 52.13924,26.04212 58.13738,39.89181 14.24641,32.89498 -41.14171,106.30711 -96.66292,128.11828 -6.37712,2.5052 -16.36958,5.58453 -22.20546,6.84292 -14.9401,3.22155 -39.12613,3.97549 -49.07448,1.52977 z"
       id="path365" /><path
       style="fill:#98c579;stroke-width:1.35834"
       d="M 172.54538,510.63715 C 128.51961,505.25586 88.808649,486.74668 59.861387,458.11544 50.768508,449.12184 37.848356,432.63952 30.65815,420.86069 7.1548785,382.35819 -4.2868034,327.16588 2.5424384,285.23633 13.028049,220.85774 59.740055,151.6149 123.75604,105.55716 c 28.58072,-20.563038 67.8375,-41.499011 113.56163,-60.563406 101.2778,-42.2271362 191.25589,-55.75793 232.27776,-34.92964 3.15479,1.6018 9.0793,6.117207 13.16557,10.034236 12.06501,11.565332 22.12416,36.711832 26.357,65.889032 10.74355,74.055588 -16.27385,184.774988 -65.17251,267.082118 -38.15997,64.23153 -84.75619,107.9499 -143.78658,134.90609 -40.81512,18.63821 -89.62197,27.3053 -127.61353,22.66156 z m 19.62418,-102.96339 c 29.92806,-5.23499 58.00461,-17.34414 86.98921,-37.51761 30.98187,-21.56361 49.27787,-37.49632 77.36947,-67.37576 C 428.68618,226.03012 481.52794,124.52338 477.33596,70.713988 475.73619,50.178814 468.69928,37.694682 454.13465,29.55265 442.78823,23.209695 430.22518,20.791435 408.91856,20.849023 365.27944,20.966976 310.94739,34.525474 246.44225,61.394795 162.65127,96.297552 112.67183,129.50252 76.908366,174.02847 34.693437,226.58656 15.63374,285.20111 26.357841,329.48717 c 8.057272,33.27317 37.863777,61.93035 76.839979,73.87707 10.13819,3.1075 28.38046,6.78829 37.80061,7.62714 10.73128,0.9556 36.17045,-0.69371 51.17113,-3.31762 z m -56.47648,-94.43607 c -23.16362,-4.48124 -27.60437,-8.95471 -33.90891,-34.15876 -3.726905,-14.89932 -3.488509,-42.4675 0.49241,-56.94101 6.86164,-24.94695 23.92904,-49.99075 44.62506,-65.48046 45.96521,-34.40213 104.57837,-30.56886 144.27425,9.43545 10.33458,10.41488 12.15798,17.82887 8.29991,33.74771 -4.47792,18.47649 -17.78675,40.53361 -36.53864,60.55662 -25.67759,27.41815 -53.10965,43.97295 -83.69476,50.50839 -12.17496,2.60153 -35.65662,3.85898 -43.54932,2.33206 z"
       id="path363" /><path
       style="fill:#8da96e;stroke-width:1.35834"
       d="M 172.54538,510.63715 C 128.51961,505.25586 88.808649,486.74668 59.861387,458.11544 50.768508,449.12184 37.848356,432.63952 30.65815,420.86069 7.1548785,382.35819 -4.2868034,327.16588 2.5424384,285.23633 13.028049,220.85774 59.740055,151.6149 123.75604,105.55716 c 28.58072,-20.563038 67.8375,-41.499011 113.56163,-60.563406 101.2778,-42.2271362 191.25589,-55.75793 232.27776,-34.92964 3.15479,1.6018 9.0793,6.117207 13.16557,10.034236 12.06501,11.565332 22.12416,36.711832 26.357,65.889032 10.74355,74.055588 -16.27385,184.774988 -65.17251,267.082118 -38.15997,64.23153 -84.75619,107.9499 -143.78658,134.90609 -40.81512,18.63821 -89.62197,27.3053 -127.61353,22.66156 z m 16.88784,-102.02517 c 35.8788,-6.75447 58.70611,-16.58741 91.50659,-39.41676 10.93524,-7.611 26.74606,-19.68974 35.13514,-26.84167 19.21236,-16.37904 55.38867,-54.16542 71.89918,-75.09914 42.35046,-53.69622 75.54011,-115.70497 86.19873,-161.0464 3.86558,-16.444101 4.11698,-40.739544 0.53986,-52.174531 -2.72231,-8.70245 -10.01611,-18.494115 -17.28714,-23.20734 C 429.60668,12.793358 366.00771,18.217025 287.5587,45.312242 225.5395,66.732827 157.66952,101.17604 121.6351,129.51651 61.164901,177.07531 20.020958,252.27674 23.443282,308.988 c 1.783278,29.55067 10.665282,48.34532 32.213449,68.16485 18.505917,17.02134 52.347119,30.89492 82.689029,33.89929 10.5096,1.04063 40.10748,-0.3731 51.08746,-2.44016 z m -53.74014,-95.37429 c -23.16362,-4.48124 -27.60437,-8.95471 -33.90891,-34.15876 -3.726905,-14.89932 -3.488509,-42.4675 0.49241,-56.94101 6.86164,-24.94695 23.92904,-49.99075 44.62506,-65.48046 45.96521,-34.40213 104.57837,-30.56886 144.27425,9.43545 10.33458,10.41488 12.15798,17.82887 8.29991,33.74771 -4.47792,18.47649 -17.78675,40.53361 -36.53864,60.55662 -25.67759,27.41815 -53.10965,43.97295 -83.69476,50.50839 -12.17496,2.60153 -35.65662,3.85898 -43.54932,2.33206 z"
       id="path361" /><path
       style="fill:#6f9a53;stroke-width:1.35834"
       d="M 174.49046,510.67505 C 105.23989,503.19451 49.471101,463.53912 20.950094,401.49744 7.1092671,371.38953 1.3273755,345.13672 1.1886592,311.77024 1.0958156,289.43752 2.9616963,277.42644 9.9054925,255.65815 29.556288,194.05436 77.175198,135.06133 139.61631,94.965013 204.00932,53.615274 300.35917,16.369968 374.40462,4.20449 c 26.18024,-4.30134562 61.23927,-4.35832031 77.46736,-0.1258963 24.7977,6.4674523 35.99648,16.5553583 46.18453,41.6031833 9.94301,24.445396 12.16829,38.156311 12.25456,75.505083 0.0452,19.58954 -0.5985,35.98445 -1.72062,43.82027 -16.0643,112.17858 -67.0477,215.23018 -136.75138,276.41255 -41.55191,36.47215 -94.5896,61.29367 -144.62872,67.68591 -17.14678,2.19041 -40.52784,2.88646 -52.71989,1.56946 z m 7.7258,-100.7574 c 56.43357,-7.88042 108.12638,-38.47387 166.87277,-98.76063 61.66399,-63.28085 108.62625,-140.00489 125.06688,-204.32648 4.21778,-16.501447 4.24508,-44.262808 0.0544,-55.258841 -5.46984,-14.352023 -17.41129,-23.950353 -35.7689,-28.750345 -12.22706,-3.197032 -44.83308,-3.152723 -65.33395,0.08878 C 289.598,36.114274 169.38296,88.446742 113.14535,136.07782 100.17487,147.06331 76.125906,173.21138 66.060372,187.27259 22.669204,247.88853 11.014483,313.73893 36.373946,355.00402 c 10.706818,17.4222 31.646647,34.7632 52.931602,43.83448 9.974016,4.25076 31.293352,10.05973 42.508962,11.58259 13.53383,1.83762 35.18558,1.62136 50.40175,-0.50344 z m -46.5887,-96.81215 c -10.60506,-1.67927 -22.00049,-6.51412 -25.1027,-10.65058 -4.10213,-5.46974 -9.29077,-24.4952 -10.964431,-40.20399 -5.065308,-47.54222 20.748941,-93.35753 65.975241,-117.09334 17.43982,-9.1528 43.34197,-13.94007 61.34346,-11.33755 23.36652,3.37815 46.85216,15.06865 63.54597,31.63144 8.1487,8.08474 10.3447,13.2424 10.17614,23.90024 -0.58297,36.85998 -50.28605,94.93155 -97.73968,114.19608 -19.49191,7.91304 -50.12213,12.2673 -67.234,9.5577 z"
       id="path359" /><path
       style="fill:#8a6c50;stroke-width:1.35834"
       d="M 168.85151,509.79543 C 143.91887,505.8403 119.68388,498.19945 101.41515,488.53399 40.978921,456.55891 1.524826,387.18483 1.2824935,312.4658 1.1882308,283.40048 6.9898436,259.0524 21.566513,227.33834 46.762745,172.51956 89.940478,125.56135 147.6989,90.162256 183.63871,68.135395 248.66297,38.757425 291.53771,25.175854 344.25548,8.4762772 380.92128,1.5280582 416.87659,1.4239663 c 20.66749,-0.059832 24.64431,0.3200882 36.29202,3.4671163 23.3436,6.3070744 32.69119,14.1763254 42.30078,35.6108564 11.82856,26.384022 16.66653,56.402531 15.13365,93.900561 -4.38567,107.28334 -57.12834,229.2117 -128.81136,297.78086 -43.34134,41.4586 -98.26872,68.93219 -152.80618,76.43062 -13.60658,1.87079 -51.13993,2.60821 -60.13399,1.18145 z m 25.11352,-101.30704 c 38.22191,-7.94915 67.93302,-22.85192 108.18338,-54.26362 60.07124,-46.88009 117.77145,-119.59825 151.24373,-190.60876 18.20528,-38.622 25.15436,-64.633207 24.29579,-90.942018 C 477.24819,59.198753 476.78772,56.900949 472.84301,48.496715 464.03759,29.736754 448.46567,21.759558 417.39667,20.092616 362.9713,17.172535 275.14693,42.868018 190.73608,86.408543 136.97862,114.13753 103.6762,139.34377 77.257962,172.2989 26.919357,235.09325 9.8795878,303.1954 32.973348,349.28944 c 15.019107,29.97741 48.600635,51.8774 92.772202,60.50086 13.94538,2.7225 52.39734,1.98867 68.21948,-1.30191 z M 135.62756,313.1055 c -10.60506,-1.67927 -22.00049,-6.51412 -25.1027,-10.65058 -4.10213,-5.46974 -9.29077,-24.4952 -10.964431,-40.20399 -5.065308,-47.54222 20.748941,-93.35753 65.975241,-117.09334 17.43982,-9.1528 43.34197,-13.94007 61.34346,-11.33755 23.36652,3.37815 46.85216,15.06865 63.54597,31.63144 8.1487,8.08474 10.3447,13.2424 10.17614,23.90024 -0.58297,36.85998 -50.28605,94.93155 -97.73968,114.19608 -19.49191,7.91304 -50.12213,12.2673 -67.234,9.5577 z"
       id="path357" /><path
       style="fill:#558636;stroke-width:1.35834"
       d="M 168.85151,509.79543 C 143.91887,505.8403 119.68388,498.19945 101.41515,488.53399 40.978921,456.55891 1.524826,387.18483 1.2824935,312.4658 1.1882308,283.40048 6.9898436,259.0524 21.566513,227.33834 46.762745,172.51956 89.940478,125.56135 147.6989,90.162256 183.63871,68.135395 248.66297,38.757425 291.53771,25.175854 344.25548,8.4762772 380.92128,1.5280582 416.87659,1.4239663 c 20.66749,-0.059832 24.64431,0.3200882 36.29202,3.4671163 23.3436,6.3070744 32.69119,14.1763254 42.30078,35.6108564 11.82856,26.384022 16.66653,56.402531 15.13365,93.900561 -4.38567,107.28334 -57.12834,229.2117 -128.81136,297.78086 -43.34134,41.4586 -98.26872,68.93219 -152.80618,76.43062 -13.60658,1.87079 -51.13993,2.60821 -60.13399,1.18145 z m 25.11352,-101.30704 c 38.22191,-7.94915 67.93302,-22.85192 108.18338,-54.26362 60.07124,-46.88009 117.77145,-119.59825 151.24373,-190.60876 18.20528,-38.622 25.15436,-64.633207 24.29579,-90.942018 C 477.24819,59.198753 476.78772,56.900949 472.84301,48.496715 464.03759,29.736754 448.46567,21.759558 417.39667,20.092616 362.9713,17.172535 275.14693,42.868018 190.73608,86.408543 136.97862,114.13753 103.6762,139.34377 77.257962,172.2989 26.919357,235.09325 9.8795878,303.1954 32.973348,349.28944 c 15.019107,29.97741 48.600635,51.8774 92.772202,60.50086 13.94538,2.7225 52.39734,1.98867 68.21948,-1.30191 z m -65.8975,-97.47651 c -12.55154,-3.54492 -16.87443,-6.67707 -20.1129,-14.5728 -8.472839,-20.65762 -10.750001,-51.1469 -5.4449,-72.90274 3.34379,-13.7127 11.38363,-30.58404 19.96403,-41.89384 40.26489,-53.0731 110.07104,-63.44092 159.02334,-23.61862 15.25958,12.41355 18.66181,17.9686 18.66181,30.47035 0,19.6329 -13.12081,44.96168 -36.37588,70.22103 -27.18391,29.52679 -55.62686,46.3612 -88.20197,52.20374 -15.17866,2.72236 -38.04497,2.76707 -47.51353,0.0929 z"
       id="path355" /><path
       style="fill:#487325;stroke-width:1.35834"
       d="M 167.52518,509.18691 C 122.61004,503.14027 77.276013,479.38003 51.064995,448.14839 22.911113,414.60172 6.8031763,375.37609 2.4263441,329.7048 -0.45312094,299.6582 2.5365627,276.5557 13.040256,247.68699 35.664678,185.50522 82.854813,130.11095 146.30378,91.255231 214.25266,49.643798 306.04246,15.142829 377.85102,4.2237209 c 26.27506,-3.99534808 63.4367,-3.33165471 78.78888,1.407141 11.15171,3.4422278 22.48271,10.1464741 28.79464,17.0370291 4.46107,4.870018 13.30393,23.742721 17.68871,37.751785 6.47563,20.68923 9.22836,55.786964 6.67538,85.111784 -8.40347,96.5257 -48.36496,195.53081 -106.40394,263.61714 -46.67174,54.75125 -109.75701,90.21154 -176.91752,99.44553 -16.25392,2.23478 -44.63519,2.52015 -58.95199,0.59278 z m 19.56473,-99.42654 c 40.14119,-6.25152 75.74035,-23.6485 119.03751,-58.17257 90.5228,-72.18057 172.02098,-202.35751 172.11353,-274.91676 0.0373,-29.255272 -10.41948,-45.004246 -35.33929,-53.224458 -8.46141,-2.791138 -12.14136,-3.110887 -35.30943,-3.06801 -28.71344,0.05314 -42.79324,2.07071 -78.08517,11.189251 -70.66631,18.258385 -162.66643,61.348989 -208.88722,97.837647 -48.857743,38.57041 -85.149162,94.53342 -95.70843,147.58678 -2.729394,13.71339 -2.731131,38.49461 -0.0036,50.83009 3.905325,17.66191 10.250899,29.02141 24.44833,43.76603 18.980672,19.71224 40.501118,30.89209 72.35157,37.58661 15.57524,3.27369 46.35119,3.54924 65.38217,0.58539 z m -59.02238,-98.74849 c -12.55154,-3.54492 -16.87443,-6.67707 -20.1129,-14.5728 -8.472839,-20.65762 -10.750001,-51.1469 -5.4449,-72.90274 3.34379,-13.7127 11.38363,-30.58404 19.96403,-41.89384 40.26489,-53.0731 110.07104,-63.44092 159.02334,-23.61862 15.25958,12.41355 18.66181,17.9686 18.66181,30.47035 0,19.6329 -13.12081,44.96168 -36.37588,70.22103 -27.18391,29.52679 -55.62686,46.3612 -88.20197,52.20374 -15.17866,2.72236 -38.04497,2.76707 -47.51353,0.0929 z"
       id="path353" /><path
       style="fill:#7a3123;stroke-width:1.35834"
       d="M 168.85151,509.2775 C 95.6997,498.66089 40.273626,453.4593 14.516633,383.41289 2.5746127,350.93644 -1.5980206,312.69996 3.6213355,283.57238 14.522642,222.7356 55.813297,159.8254 115.27371,113.4595 176.60763,65.63266 291.68906,17.860665 378.329,4.2613757 c 16.01838,-2.5142996 23.0639,-2.897649 43.10596,-2.3454066 33.50584,0.9232276 46.76001,5.2259171 61.92324,20.1020939 4.85543,4.763524 7.62796,9.482334 12.99709,22.120919 8.41087,19.798543 11.57571,33.250321 13.60112,57.809758 5.29733,64.23361 -18.53132,161.7494 -56.61868,231.70486 -20.32914,37.33875 -37.86215,61.87605 -62.90308,88.03234 -43.03317,44.94992 -96.03185,74.48235 -152.6136,85.0408 -17.23287,3.21576 -54.81139,4.60554 -68.96954,2.55076 z m 30.27477,-101.37772 c 30.37616,-7.07343 54.8253,-18.40106 83.98853,-38.91305 26.22632,-18.44631 44.19411,-34.14863 70.201,-61.34964 26.41951,-27.63255 40.35404,-44.74739 60.06161,-73.76955 36.05969,-53.10294 57.90425,-101.18526 63.97463,-140.815247 4.9116,-32.064915 -3.08983,-54.340129 -23.33802,-64.970862 -13.03914,-6.845829 -18.47956,-7.75213 -46.4218,-7.733243 -29.28074,0.0198 -42.12371,1.797004 -75.54042,10.453287 C 270.36662,46.78044 193.42659,80.049597 145.03665,111.66752 99.20899,141.61127 64.005929,180.83177 41.711581,226.78427 c -21.996859,45.33932 -25.348185,90.5092 -9.140158,123.19291 2.771599,5.58896 8.621705,13.05794 17.499836,22.34246 12.097653,12.65142 14.753232,14.67975 28.589318,21.83666 15.127911,7.82511 27.883193,12.2373 45.758633,15.82838 14.32869,2.87856 58.71104,1.63996 74.70707,-2.0849 z m -71.05875,-96.8879 c -12.55154,-3.54492 -16.87443,-6.67707 -20.1129,-14.5728 -8.472839,-20.65762 -10.750001,-51.1469 -5.4449,-72.90274 3.34379,-13.7127 11.38363,-30.58404 19.96403,-41.89384 40.26489,-53.0731 110.07104,-63.44092 159.02334,-23.61862 15.25958,12.41355 18.66181,17.9686 18.66181,30.47035 0,19.6329 -13.12081,44.96168 -36.37588,70.22103 -27.18391,29.52679 -55.62686,46.3612 -88.20197,52.20374 -15.17866,2.72236 -38.04497,2.76707 -47.51353,0.0929 z"
       id="path351" /><path
       style="fill:#3c701b;stroke-width:1.35834"
       d="M 168.85151,509.2775 C 95.6997,498.66089 40.273626,453.4593 14.516633,383.41289 2.5746127,350.93644 -1.5980206,312.69996 3.6213355,283.57238 14.522642,222.7356 55.813297,159.8254 115.27371,113.4595 176.60763,65.63266 291.68906,17.860665 378.329,4.2613757 c 16.01838,-2.5142996 23.0639,-2.897649 43.10596,-2.3454066 33.50584,0.9232276 46.76001,5.2259171 61.92324,20.1020939 4.85543,4.763524 7.62796,9.482334 12.99709,22.120919 8.41087,19.798543 11.57571,33.250321 13.60112,57.809758 5.29733,64.23361 -18.53132,161.7494 -56.61868,231.70486 -20.32914,37.33875 -37.86215,61.87605 -62.90308,88.03234 -43.03317,44.94992 -96.03185,74.48235 -152.6136,85.0408 -17.23287,3.21576 -54.81139,4.60554 -68.96954,2.55076 z m 30.27477,-101.37772 c 30.37616,-7.07343 54.8253,-18.40106 83.98853,-38.91305 26.22632,-18.44631 44.19411,-34.14863 70.201,-61.34964 26.41951,-27.63255 40.35404,-44.74739 60.06161,-73.76955 36.05969,-53.10294 57.90425,-101.18526 63.97463,-140.815247 4.9116,-32.064915 -3.08983,-54.340129 -23.33802,-64.970862 -13.03914,-6.845829 -18.47956,-7.75213 -46.4218,-7.733243 -29.28074,0.0198 -42.12371,1.797004 -75.54042,10.453287 C 270.36662,46.78044 193.42659,80.049597 145.03665,111.66752 99.20899,141.61127 64.005929,180.83177 41.711581,226.78427 c -21.996859,45.33932 -25.348185,90.5092 -9.140158,123.19291 2.771599,5.58896 8.621705,13.05794 17.499836,22.34246 12.097653,12.65142 14.753232,14.67975 28.589318,21.83666 15.127911,7.82511 27.883193,12.2373 45.758633,15.82838 14.32869,2.87856 58.71104,1.63996 74.70707,-2.0849 z m -71.75866,-97.3573 c -4.94374,-1.35219 -10.61383,-3.704 -12.6002,-5.22629 -8.16024,-6.25369 -13.54558,-24.78571 -14.5143,-49.94656 -0.597605,-15.52166 -0.290306,-19.84555 2.12562,-29.90907 15.10571,-62.92253 80.62717,-104.56935 138.75816,-88.19761 22.70344,6.39407 49.86775,24.99868 56.6435,38.79466 2.20099,4.48138 2.57901,7.28358 2.06426,15.30232 -2.51593,39.19301 -54.8879,97.02161 -103.25084,114.00854 -21.80062,7.65721 -51.91743,9.90817 -69.2262,5.17401 z m 88.38712,-72.51152 c 29.98444,-15.48229 40.48144,-51.75506 20.91603,-72.2761 -22.18461,-23.26816 -67.12419,-8.93846 -79.10275,25.22316 -6.18046,17.62601 -0.83821,37.38435 12.43414,45.98776 8.49003,5.5034 13.55298,6.72574 25.51607,6.16025 9.59493,-0.45356 12.81979,-1.2655 20.23651,-5.09507 z"
       id="path349" /><path
       style="fill:#652012;stroke-width:1.35834"
       d="m 127.36762,310.54248 c -4.94374,-1.35219 -10.61383,-3.704 -12.6002,-5.22629 -8.16024,-6.25369 -13.54558,-24.78571 -14.5143,-49.94656 -0.597605,-15.52166 -0.290306,-19.84555 2.12562,-29.90907 15.10571,-62.92253 80.62717,-104.56935 138.75816,-88.19761 22.70344,6.39407 49.86775,24.99868 56.6435,38.79466 2.20099,4.48138 2.57901,7.28358 2.06426,15.30232 -2.51593,39.19301 -54.8879,97.02161 -103.25084,114.00854 -21.80062,7.65721 -51.91743,9.90817 -69.2262,5.17401 z m 88.38712,-72.51152 c 29.98444,-15.48229 40.48144,-51.75506 20.91603,-72.2761 -22.18461,-23.26816 -67.12419,-8.93846 -79.10275,25.22316 -6.18046,17.62601 -0.83821,37.38435 12.43414,45.98776 8.49003,5.5034 13.55298,6.72574 25.51607,6.16025 9.59493,-0.45356 12.81979,-1.2655 20.23651,-5.09507 z"
       id="path347"
       sodipodi:nodetypes="sssssssssssssss" /></g><g
     inkscape:groupmode="layer"
     id="layer2"
     inkscape:label="Text"><path
       style="display:inline;fill:#000000;fill-opacity:0.29819;stroke-width:1.35834"
       d="m 136.29597,482.2456 c -3.92792,-4.11976 -4.07743,-8.11356 -0.68291,-18.24331 3.19085,-9.52195 8.9516,-17.0579 13.14294,-17.19302 9.66837,-0.3117 18.42543,10.54938 16.77365,20.80377 -0.75494,4.6867 -0.44825,5.60648 2.55838,7.67272 6.31332,4.33869 3.48501,8.07582 -3.56287,4.70774 -2.55738,-1.22212 -4.29056,-0.8432 -9.54431,2.08668 -8.25618,4.60427 -14.40089,4.65867 -18.68488,0.16542 z m 15.71582,-4.63023 c 1.9953,-2.31247 1.82971,-2.7401 -2.4471,-6.31934 -6.63255,-5.55072 -6.13725,-8.30322 1.38127,-7.67604 3.28268,0.27384 5.96852,-10e-4 5.96852,-0.6109 0,-2.22313 -5.39414,-12.1269 -6.60496,-12.1269 -1.917,0 -7.98055,7.29561 -8.78167,10.56599 -0.3927,1.60317 -0.52327,5.35399 -0.29014,8.33516 0.32517,4.15788 1.04171,5.52297 3.07656,5.86109 5.59505,0.92974 6.81898,1.88689 3.97901,3.11169 -1.95673,0.84389 -2.09765,1.16968 -0.53715,1.24179 1.16354,0.0538 3.07859,-1.01837 4.25566,-2.38254 z m 23.43495,-9.62813 c -1.80366,-1.30384 -4.03983,-3.33835 -4.96926,-4.52114 -2.49834,-3.17936 -8.27191,-15.05872 -10.41472,-21.42872 -2.19669,-6.53019 -1.18567,-7.81406 6.13608,-7.79209 4.60643,0.0139 4.67658,0.10739 9.11045,12.15098 4.47534,12.15628 6.27315,15.61487 8.11677,15.61487 1.23409,0 -1.90361,-14.51139 -4.60267,-21.28666 -2.44158,-6.12895 -2.61769,-12.96614 -0.35593,-13.81834 0.91186,-0.34356 3.51921,-0.10099 5.7941,0.5391 4.44708,1.25125 5.64871,4.15282 8.48843,20.4968 1.95332,11.24235 1.65235,13.38142 -2.54605,18.09534 -4.4195,4.96217 -9.63657,5.6515 -14.7572,1.94986 z m 27.6977,-11.88836 c -2.76533,-5.37109 -17.05054,-35.94601 -17.05054,-36.49362 0,-1.52972 4.49409,-4.89218 6.53864,-4.89218 4.8988,0 18.66177,26.95142 18.66177,36.54453 0,7.68322 -5.12059,10.72501 -8.14987,4.84127 z m 13.57388,-7.87447 c -7.03854,-7.38232 -6.52023,-34.39473 0.80742,-42.08031 5.32045,-5.58031 17.64264,-6.00949 17.64264,-0.6145 0,2.80945 -6.53826,5.43212 -8.74766,3.50892 -1.44213,-1.25532 -2.12967,-0.75935 -3.31791,2.39334 -2.65316,7.03947 -3.05484,21.51411 -0.75708,27.28199 1.82685,4.58582 2.6235,5.21274 6.62405,5.21274 2.50922,0 5.32006,-0.9764 6.27118,-2.17841 2.28014,-2.88159 8.65595,-6.28758 9.70679,-5.18541 1.81471,1.90335 0.50547,3.47204 -7.33233,8.78528 -9.37718,6.35679 -16.62729,7.35472 -20.8971,2.87636 z M 249.716,435.17778 c -4.76078,-8.20182 -12.09785,-29.16525 -11.33029,-32.37285 0.85271,-3.56334 7.22288,-5.93436 8.79154,-3.27226 0.66,1.12006 1.65791,0.31283 3.01435,-2.43836 3.84398,-7.79648 10.16777,-12.98586 15.82464,-12.98586 h 5.14388 l -2.74945,4.04983 c -1.51219,2.2274 -4.19049,7.31211 -5.95177,11.29935 l -3.20235,7.24954 6.19305,5.61085 c 8.41239,7.62154 14.25848,16.05449 12.44692,17.95454 -0.97985,1.0277 -3.62225,0.1316 -8.83346,-2.99554 l -7.43539,-4.46189 0.36531,6.56582 c 0.35946,6.4606 0.2848,6.59543 -4.65944,8.41474 -4.96942,1.82857 -5.05329,1.79975 -7.61754,-2.61791 z m 38.0375,-15.43672 c 1.5404,-3.38802 1.88868,-6.47737 1.24095,-11.00765 l -0.90043,-6.29777 -6.71207,-0.96823 c -6.92816,-0.99941 -11.7288,-4.4786 -11.7288,-8.50027 0,-5.24772 8.23548,-14.99635 14.84529,-17.57289 1.23481,-0.48132 4.09955,-0.31731 6.3661,0.36448 3.65855,1.1005 4.03414,0.9525 3.34683,-1.31878 -0.91106,-3.01071 2.43435,-7.02493 5.85449,-7.02493 4.93188,0 18.66177,26.96601 18.66177,36.65241 0,5.00974 -2.76979,8.64776 -5.6893,7.47273 -0.95923,-0.38608 -4.96846,-7.67299 -8.9094,-16.19315 -4.98819,-10.78426 -7.72036,-15.2678 -8.992,-14.75599 -1.00468,0.40435 -2.66099,0.73519 -3.68073,0.73519 -2.21061,0 -7.67541,10.64173 -6.75569,13.15553 0.35351,0.96625 3.31238,2.46187 6.57526,3.32362 6.66145,1.75929 7.96465,3.89604 6.81999,11.1822 -1.68341,10.71558 -4.88528,15.46336 -10.42841,15.46336 -1.83913,0 -1.83008,-0.49524 0.0862,-4.70986 z m 37.76119,-16.65614 c -1.4155,-1.78887 -6.43984,-15.66975 -7.4354,-20.54195 -0.2541,-1.24358 -1.73095,-5.35487 -3.28188,-9.13618 -2.2321,-5.4421 -2.53792,-7.65295 -1.46717,-10.60681 1.75837,-4.85074 7.42182,-5.23771 8.8055,-0.60166 0.51381,1.72151 3.30798,8.45105 6.20929,14.95453 2.9013,6.50349 5.80428,13.27505 6.45107,15.04794 0.90696,2.48604 1.82044,3.00888 3.9932,2.28559 2.63375,-0.87674 5.06451,0.99869 5.11843,3.94906 0.0281,1.54164 -10.63307,6.47199 -14.07542,6.50925 -1.55202,0.0168 -3.49494,-0.82009 -4.31762,-1.85977 z m 17.86717,-16.30282 c -12.80037,-14.50124 -15.16871,-23.04494 -7.12993,-25.72097 2.34863,-0.78183 3.84473,0.10545 7.4642,4.42693 l 4.5268,5.40475 -0.70078,-6.91117 c -0.87299,-8.60928 0.14941,-15.6579 2.40268,-16.5648 0.94424,-0.38003 3.37696,-0.22527 5.40607,0.3439 l 3.6893,1.03486 0.44988,22.34995 c 0.4486,22.28664 0.44128,22.35236 -2.58232,23.2019 -5.21924,1.46646 -5.87931,1.09727 -13.5259,-7.56535 z m 29.35951,-10.13075 c -5.4362,-8.58742 -12.00746,-26.86288 -11.35311,-31.57437 0.32514,-2.34109 2.9511,-4.63441 9.72969,-8.49721 9.3923,-5.35222 17.0877,-7.24218 14.09658,-3.46207 -0.81461,1.02949 -3.87195,3.00258 -6.7941,4.38464 -5.83485,2.75966 -6.03104,3.40782 -3.74504,12.37237 l 1.56793,6.14865 6.39313,-3.62149 c 9.34326,-5.29261 10.98108,-2.38524 2.631,4.67045 l -6.46195,5.46026 3.29574,5.22345 c 1.81267,2.8729 3.56074,5.22346 3.88461,5.22346 0.32388,0 3.76085,-2.38236 7.63772,-5.29412 l 7.04888,-5.29412 -1.86619,-4.65511 c -1.0264,-2.56032 -2.52582,-8.84451 -3.33205,-13.96488 -1.27227,-8.08024 -1.15912,-9.98775 0.85678,-14.44345 2.99696,-6.62411 6.15713,-8.28711 14.20634,-7.47591 9.26326,0.93357 11.04514,3.22951 9.37638,12.08154 l -1.3292,7.05083 5.44614,1.52028 c 6.16547,1.72106 9.86786,4.69085 11.52967,9.2483 2.47754,6.79453 -2.38331,9.95596 -6.1174,3.97867 -1.14649,-1.83524 -3.96584,-4.29243 -6.26522,-5.46045 -3.8796,-1.97072 -4.44801,-1.92403 -7.89237,0.64837 -3.00815,2.24662 -3.46051,3.26426 -2.38655,5.36898 0.72883,1.42834 1.32513,5.15556 1.32513,8.28273 0,4.71236 -0.56674,5.95659 -3.31045,7.26777 -2.67081,1.27633 -3.75999,1.15663 -5.63694,-0.61953 -2.15303,-2.0374 -3.01865,-1.64366 -11.61083,5.28138 -12.22914,9.8563 -14.76861,9.87458 -20.92432,0.15058 z m 37.97153,-48.18768 c -1.05411,-2.48618 -2.79234,3.91627 -2.83262,10.4334 -0.0224,3.62386 0.22064,3.34913 1.84577,-2.08668 1.02937,-3.44302 1.47344,-7.19905 0.98685,-8.34672 z"
       id="path345" /><path
       style="display:inline;fill:#000000;fill-opacity:0.600917;stroke-width:1.35834"
       d="m 137.12119,482.05872 c -2.46996,-2.17984 -4.08078,-4.91968 -4.08078,-6.94096 0,-5.54548 6.50974,-20.81026 10.64796,-24.96858 3.66223,-3.68001 4.17624,-3.80705 9.11897,-2.25385 7.95631,2.5002 12.06516,8.49374 12.06516,17.59938 0,6.41006 0.49189,7.84927 3.54307,10.36656 4.98187,4.11014 2.37603,6.74925 -3.51126,3.55612 -3.82688,-2.07561 -4.4769,-2.09276 -6.50105,-0.17145 -2.88595,2.73931 -11.25523,6.41423 -14.6078,6.41423 -1.42642,0 -4.42986,-1.62065 -6.67427,-3.60145 z m 14.57513,-3.40308 c 3.61276,-2.02794 3.22817,-3.59916 -2.0767,-8.48439 -2.5532,-2.35124 -4.64218,-4.83613 -4.64218,-5.52198 0,-1.74393 7.57574,-1.5595 10.8234,0.26351 2.42521,1.36132 2.59935,1.18957 1.76317,-1.7389 -1.60337,-5.61529 -5.35014,-11.56983 -7.56108,-12.01642 -3.6298,-0.73318 -8.93611,8.16036 -9.19776,15.41571 -0.22793,6.32035 2.00184,11.45165 4.32256,9.94731 0.64683,-0.41929 1.8825,-0.30441 2.74593,0.25529 1.0792,0.69956 0.76829,1.34687 -0.99475,2.07101 -2.34964,0.96506 -2.36276,1.06156 -0.15635,1.15113 1.32456,0.0538 3.56275,-0.55024 4.97376,-1.34227 z m 22.09518,-12.38351 c -5.11322,-4.70875 -13.16483,-21.05474 -13.40076,-27.2056 -0.15096,-3.93556 0.16146,-4.20691 5.29722,-4.60079 5.06665,-0.3886 5.51189,-0.13411 6.21482,3.55222 1.37404,7.20581 10.06555,25.64351 11.61487,24.6392 1.71138,-1.10936 1.14969,-4.13375 -3.63663,-19.5812 -1.92297,-6.2062 -3.12104,-12.30974 -2.66235,-13.56341 0.98698,-2.69765 6.14576,-3.00065 9.20238,-0.5405 2.20296,1.77307 5.40087,13.16475 7.02479,25.02377 0.85306,6.22968 0.64696,6.85955 -3.75521,11.47673 -5.7657,6.04732 -9.97096,6.25882 -15.89913,0.79958 z m 30.60051,-9.47769 c -2.67137,-3.23855 -16.97177,-34.54386 -16.97177,-37.15321 0,-1.91873 3.79975,-4.93121 6.2129,-4.92566 2.72937,0.007 16.01782,25.9462 17.17292,33.52265 0.74301,4.8735 -1.11144,10.99068 -3.33187,10.99068 -0.59075,0 -1.97774,-1.0955 -3.08218,-2.43446 z m 13.15252,-7.88702 c -3.38886,-2.69606 -4.92389,-9.60149 -4.92389,-22.1504 0,-11.81628 2.25319,-18.96504 7.09972,-22.52548 3.08569,-2.26687 11.0945,-2.68461 14.0364,-0.73214 3.16091,2.09784 -0.90056,6.0174 -5.50138,5.30916 -2.06142,-0.31733 -4.36399,0.20144 -5.1168,1.15283 -1.81117,2.28892 -3.1563,19.76134 -2.0133,26.15161 1.23435,6.90106 5.95009,10.17711 11.30237,7.85184 2.13141,-0.92598 4.90623,-2.8784 6.16625,-4.33873 2.46907,-2.86155 7.73111,-3.67736 6.90251,-1.07013 -0.27705,0.87173 -4.31451,4.00175 -8.97214,6.95559 -8.89875,5.64351 -14.82234,6.70336 -18.97974,3.39585 z M 250.02487,436.06 c -0.70837,-1.41175 -3.79483,-8.92493 -6.85878,-16.69598 -4.43746,-11.25464 -5.28657,-14.68627 -4.1736,-16.86745 1.79236,-3.51261 6.69518,-4.95434 7.68137,-2.2588 0.49973,1.36584 1.89919,0.0728 4.40335,-4.06883 4.37232,-7.23118 10.40963,-12.06049 15.07729,-12.06049 h 3.3867 l -5.37783,10.85031 -5.37783,10.85032 9.41281,9.87257 c 5.69961,5.97798 9.41282,11.02689 9.41282,12.79871 0,1.60939 -0.24109,2.92615 -0.53575,2.92615 -0.29467,0 -4.1742,-2.15703 -8.62119,-4.79338 -4.447,-2.63636 -8.05945,-4.35787 -8.02768,-3.82558 0.0317,0.53229 0.55083,3.6418 1.15346,6.91003 1.23266,6.6849 1.2471,6.66363 -5.41773,7.97502 -3.9421,0.77568 -5.09044,0.47394 -6.13741,-1.6126 z m 37.60255,-14.7391 c 0.5727,-1.72151 1.08996,-6.57304 1.14944,-10.78118 l 0.10823,-7.65116 -5.30535,-1.20503 c -13.56108,-3.08021 -15.98671,-6.09928 -11.29605,-14.05962 5.70917,-9.68885 13.43839,-13.84863 20.47193,-11.01778 2.95223,1.18822 2.61811,4.72008 -0.44656,4.72008 -2.91416,0 -8.0662,7.86264 -8.0662,12.30999 0,2.08072 1.06543,3.17836 3.64743,3.75766 9.50775,2.13316 9.98075,2.74126 9.34157,12.00948 -0.49196,7.13345 -1.17354,9.04086 -4.2093,11.77964 -4.64389,4.18961 -6.76103,4.24374 -5.39514,0.13786 z m 24.19791,-11.82452 c -2.67136,-3.23855 -16.97177,-34.54386 -16.97177,-37.15321 0,-1.91873 3.79975,-4.93121 6.21291,-4.92566 2.72936,0.007 16.01781,25.9462 17.17291,33.52265 0.74301,4.8735 -1.11143,10.99068 -3.33187,10.99068 -0.59075,0 -1.97774,-1.09551 -3.08218,-2.43446 z m 14.42569,-7.03851 c -2.73008,-3.16404 -12.8209,-33.08079 -12.8254,-38.02404 -0.003,-3.34405 2.048,-5.36553 5.44397,-5.36553 0.68825,0 3.22631,4.53853 5.64017,10.08562 12.35145,28.38398 11.80322,27.37998 14.21242,26.02765 1.54469,-0.86707 2.74346,-0.68432 3.73556,0.56947 1.8355,2.31967 -1.2245,5.36202 -7.6804,7.6361 -5.83042,2.05374 -5.96512,2.03906 -8.52632,-0.92927 z m 19.38245,-13.13272 c -7.94551,-8.57449 -14.81865,-20.12523 -13.97905,-23.49266 0.38455,-1.54236 2.20434,-3.4045 4.04399,-4.13809 2.95221,-1.17725 3.82608,-0.71985 7.44514,3.89703 l 4.10033,5.23084 0.66317,-11.08025 c 0.70816,-11.83183 1.63463,-13.07744 8.39451,-11.286 2.80162,0.74245 2.87936,1.35217 2.87936,22.58391 0,20.52991 -0.15694,21.88537 -2.65268,22.91139 -4.44295,1.82654 -5.22191,1.49577 -10.89477,-4.62617 z m 29.0935,-10.4334 c -5.28783,-7.05727 -7.45159,-11.75632 -10.90375,-23.67976 -2.4276,-8.38464 -2.6346,-10.48837 -1.20931,-12.28962 1.81382,-2.29226 18.74838,-11.67646 21.07114,-11.67646 3.34066,0 0.80859,3.02815 -5.20434,6.22395 l -6.56377,3.48857 2.05758,7.31603 c 1.13169,4.02383 2.19903,7.47639 2.37188,7.67238 0.17286,0.19599 3.04194,-1.1648 6.37573,-3.02398 5.518,-3.07725 7.62771,-3.30871 7.62771,-0.83685 0,0.4954 -2.6638,2.9941 -5.91956,5.55269 l -5.91955,4.65197 2.27212,4.06025 c 4.12183,7.3656 5.0328,7.49208 12.92106,1.79386 3.99115,-2.88306 7.25663,-5.46604 7.25663,-5.73994 0,-0.27389 -0.88085,-2.85818 -1.95745,-5.74284 -2.82979,-7.5823 -4.34526,-19.87699 -3.08089,-24.99471 2.21932,-8.98294 10.75369,-12.34187 20.50286,-8.06944 4.54584,1.99214 4.72979,2.33336 3.93713,7.30338 -0.45734,2.86747 -1.17792,6.5341 -1.60131,8.14805 -0.67022,2.55478 -0.058,3.05384 4.73188,3.85719 6.46929,1.085 11.95255,6.19899 11.95255,11.14758 0,5.16754 -2.67843,5.97892 -5.64359,1.70962 -1.42438,-2.05088 -4.39847,-4.70986 -6.60909,-5.90885 -3.75705,-2.03773 -4.2457,-1.9979 -7.48876,0.61036 -1.9082,1.53469 -3.24315,3.62871 -2.96654,4.6534 0.27659,1.02467 0.79936,4.82758 1.16167,8.45092 0.59604,5.9607 0.35876,6.70801 -2.49243,7.84974 -2.43015,0.97315 -3.80132,0.63612 -5.99257,-1.4729 -1.56277,-1.50414 -3.0549,-2.1835 -3.31585,-1.50971 -0.92863,2.39784 -18.81637,15.67182 -21.11901,15.67182 -1.28889,0 -4.10236,-2.34751 -6.25217,-5.2167 z m 36.22325,-45.12531 c 0.52953,-3.28727 0.33498,-6.15923 -0.47473,-7.00849 -1.36617,-1.4329 -2.00415,1.03097 -3.28892,12.70164 -0.45385,4.12264 -0.30201,4.42126 1.17257,2.30616 0.93166,-1.33635 2.09766,-4.93605 2.59108,-7.99931 z"
       id="path343" /><path
       style="display:inline;fill:#000200;stroke-width:1.35834"
       d="m 140.02254,484.13278 c -1.56667,-0.60785 -3.83348,-2.68191 -5.03735,-4.609 -2.03882,-3.26361 -2.03181,-4.00787 0.10239,-10.85601 2.89719,-9.29654 4.85833,-13.33322 8.80589,-18.12528 2.74071,-3.32707 3.67018,-3.65945 7.23483,-2.58718 10.13231,3.04783 14.53958,9.17652 13.3407,18.55136 -0.60205,4.70785 -0.18342,5.91183 3.13326,9.01134 4.87395,4.55482 3.78501,6.53615 -2.16028,3.9307 -4.22498,-1.85152 -4.96696,-1.78244 -9.2372,0.86012 -5.9318,3.67079 -12.54761,5.23414 -16.18222,3.82395 z m 12.16576,-5.60745 3.58959,-2.96147 -4.73706,-4.0954 c -5.84694,-5.05495 -6.37533,-8.76074 -1.08962,-7.64195 2.00608,0.42461 4.69191,1.19585 5.96851,1.71385 4.62049,1.87482 1.55374,-8.39624 -4.11294,-13.77501 -2.68058,-2.54438 -2.79408,-2.51059 -6.72328,2.00146 -7.05349,8.09977 -6.92605,23.39681 0.19709,23.65648 1.65698,0.0604 2.26292,0.42686 1.34651,0.81437 -1.712,0.72393 -1.01064,3.24915 0.90243,3.24915 0.58805,0 2.6845,-1.33266 4.65877,-2.96148 z m 19.95528,-14.35841 c -3.7804,-4.20417 -12.57643,-23.11344 -12.57643,-27.03619 0,-1.84991 9.176,-3.66508 10.47915,-2.07295 0.54815,0.6697 1.75215,3.74896 2.67554,6.84278 2.60354,8.72307 8.52777,20.62975 10.59022,21.28451 2.46304,0.78192 1.41226,-6.07149 -3.32163,-21.66448 -2.03603,-6.70645 -3.04448,-12.17081 -2.36852,-12.83404 0.64742,-0.63524 3.09175,-0.84194 5.43185,-0.45934 4.80313,0.78531 5.56261,2.46143 8.92247,19.6914 1.49855,7.68485 1.63394,10.99417 0.54066,13.21564 -2.9777,6.05044 -5.43094,7.83249 -10.78254,7.83249 -4.29568,0 -6.07589,-0.89093 -9.59077,-4.79982 z m 23.88602,-24.54366 c -4.73516,-10.018 -8.60936,-19.08313 -8.60936,-20.14473 0,-1.06161 1.57438,-2.34465 3.49865,-2.8512 4.33834,-1.14204 6.36419,1.34603 13.78197,16.92657 6.67502,14.02043 7.46163,24.28388 1.86115,24.28388 -1.14359,0 -5.41267,-7.38285 -10.53241,-18.21452 z m 21.82025,8.69175 c -2.25777,-1.91753 -3.18964,-4.46977 -3.68244,-10.08561 -1.37404,-15.65797 -0.86,-24.06498 1.75438,-28.69332 3.72962,-6.60264 14.36617,-9.74797 17.89281,-5.29108 2.32224,2.93482 -3.7332,5.86856 -7.61527,3.68947 -2.29231,-1.28673 -2.88386,-0.96045 -4.15432,2.29134 -0.81477,2.08545 -1.62721,8.90321 -1.80545,15.1506 -0.27642,9.6889 0.0855,11.93866 2.46169,15.30232 3.89212,5.5096 7.75207,5.66503 14.49802,0.58384 6.54308,-4.92841 10.27935,-5.78479 6.59161,-1.51087 -2.85045,3.30357 -17.35349,11.13049 -20.62445,11.13049 -1.26164,0 -3.6541,-1.15523 -5.31658,-2.56718 z m 29.29932,-19.97512 c -7.06901,-16.51373 -9.12719,-24.04169 -7.29259,-26.67322 1.80679,-2.5916 4.75299,-2.92609 6.80609,-0.77271 1.00128,1.05019 2.41812,-0.31367 4.85309,-4.67157 3.90083,-6.98139 9.24089,-11.25325 14.26416,-11.41088 l 3.42165,-0.1074 -4.33691,7.7011 c -7.11491,12.63401 -7.0723,13.99542 0.65028,20.77693 6.4356,5.65135 12.09623,13.43052 12.09623,16.62332 0,0.85162 -3.90955,-0.70553 -8.68788,-3.46033 l -8.68789,-5.00871 0.87819,6.94347 c 0.94563,7.47668 0.70007,7.89025 -5.51397,9.28644 -4.03688,0.90703 -4.1791,0.75175 -8.45045,-9.22647 z m 39.74636,-4.65362 c 0,-0.42055 0.92707,-2.64496 2.06016,-4.94315 1.45653,-2.95416 1.80295,-5.97755 1.18229,-10.31851 -0.92538,-6.4723 -1.15932,-6.65702 -10.5373,-8.3213 -9.62554,-1.7082 -11.04703,-5.91383 -5.06101,-14.97356 4.59687,-6.95726 9.71786,-9.75217 15.70866,-8.57341 5.20317,1.02381 6.38301,4.76987 1.50229,4.76987 -2.04097,0 -3.63169,1.21713 -4.64783,3.55624 -0.84968,1.95593 -1.98997,3.26772 -2.53398,2.91508 -1.35694,-0.87959 -1.25747,6.92657 0.1065,8.35714 0.60258,0.63201 3.58684,1.77969 6.63169,2.55038 4.7484,1.2019 5.59867,1.97684 5.97597,5.44655 0.71878,6.60993 -1.06854,13.43397 -4.44652,16.97695 -2.92769,3.07067 -5.94092,4.36794 -5.94092,2.55772 z m 16.56739,-31.36108 c -4.73516,-10.01799 -8.60936,-19.08312 -8.60936,-20.14473 0,-1.0616 1.57439,-2.34465 3.49865,-2.85119 4.33834,-1.14204 6.36419,1.34603 13.78197,16.92657 6.67502,14.02042 7.46163,24.28388 1.86116,24.28388 -1.1436,0 -5.41268,-7.38285 -10.53242,-18.21453 z m 21.4525,7.43335 c -2.70864,-5.63659 -10.34944,-29.47401 -10.89392,-33.9863 -0.32997,-2.7347 0.27546,-4.31479 2.0308,-5.30011 3.53637,-1.98504 3.38305,-2.11565 6.5333,5.56498 9.9938,24.36589 13.09458,30.148 16.09969,30.0215 4.90915,-0.20665 4.55417,3.21463 -0.56636,5.45863 -7.26349,3.1831 -11.07257,2.67575 -13.20351,-1.7587 z m 21.20761,-10.55364 c -10.81993,-11.4686 -15.52464,-21.19639 -12.38859,-25.61546 2.15939,-3.04283 5.81564,-1.88721 10.0562,3.17843 l 4.11641,4.91731 v -9.67247 c 0,-11.70723 0.75177,-14.07979 4.4525,-14.05207 5.68163,0.0426 6.02349,1.26831 6.26676,22.469 0.12825,11.1761 -0.13286,20.94132 -0.58021,21.70049 -0.44735,0.75918 -2.0731,1.72584 -3.6128,2.14815 -2.07428,0.56893 -4.22695,-0.74527 -8.31027,-5.07338 z m 27.88993,-11.70427 c -5.97842,-9.08131 -13.19191,-29.42117 -11.85799,-33.436 0.78709,-2.36899 18.55707,-11.70363 21.24187,-11.15845 1.16812,0.2372 -0.94304,1.92076 -4.75793,3.79422 -3.77179,1.85229 -6.85779,4.0883 -6.85779,4.96889 0,2.69741 4.17274,14.61993 5.09844,14.56747 0.47854,-0.0271 2.36221,-0.94393 4.18592,-2.03738 1.82371,-1.09345 4.78394,-2.01028 6.57828,-2.03738 2.83427,-0.0428 2.44436,0.54403 -2.97113,4.47184 -3.42844,2.48663 -6.23945,5.15833 -6.24668,5.93712 -0.007,0.77877 1.52188,3.78529 3.39801,6.68113 l 3.41115,5.26515 4.21529,-2.96377 c 2.31841,-1.63007 5.88541,-4.01057 7.92667,-5.29001 2.66525,-1.67054 3.51941,-3.11049 3.03028,-5.10848 -5.39568,-22.04044 -5.75516,-27.47126 -2.22072,-33.55062 3.01117,-5.17933 7.67685,-6.69177 14.60614,-4.73477 7.18002,2.02782 8.5588,4.19065 6.83121,10.71589 -2.06641,7.80504 -1.94891,8.06426 4.47233,9.86557 6.64207,1.86325 11.349,6.33368 11.349,10.77878 0,4.99537 -1.54465,5.0295 -6.07745,0.13425 -5.48955,-5.9285 -10.08344,-7.23213 -14.58464,-4.13877 -2.56605,1.76346 -3.18579,3.05917 -2.50853,5.24475 0.49471,1.59646 1.20193,4.9458 1.57159,7.44296 1.0996,7.42805 -4.00502,11.24132 -8.86849,6.62496 -1.93133,-1.83319 -2.84965,-1.45276 -8.66982,3.59164 -12.85157,11.13864 -17.26952,12.00478 -22.29501,4.371 z m 35.63646,-37.16776 c 2.17658,-5.46376 2.53435,-12.69907 0.68713,-13.89646 -1.84635,-1.19685 -2.45478,0.56425 -3.48065,10.07455 -1.04477,9.68564 -0.0724,11.016 2.79352,3.82191 z"
       id="path341" /></g></svg>
