<?xml version="1.0" encoding="UTF-8" standalone="no"?>
<!-- Created with Inkscape (http://www.inkscape.org/) -->

<svg
   width="512"
   height="512"
   viewBox="0 0 512 512"
   version="1.1"
   id="svg5"
   xml:space="preserve"
   inkscape:version="1.2 (dc2aedaf03, 2022-05-15)"
   sodipodi:docname="Logo_Clean.svg"
   xmlns:inkscape="http://www.inkscape.org/namespaces/inkscape"
   xmlns:sodipodi="http://sodipodi.sourceforge.net/DTD/sodipodi-0.dtd"
   xmlns="http://www.w3.org/2000/svg"
   xmlns:svg="http://www.w3.org/2000/svg"><sodipodi:namedview
     id="namedview7"
     pagecolor="#505050"
     bordercolor="#eeeeee"
     borderopacity="1"
     inkscape:showpageshadow="0"
     inkscape:pageopacity="0"
     inkscape:pagecheckerboard="0"
     inkscape:deskcolor="#505050"
     inkscape:document-units="px"
     showgrid="false"
     inkscape:zoom="2.76169"
     inkscape:cx="464.75165"
     inkscape:cy="275.55591"
     inkscape:window-width="3812"
     inkscape:window-height="2090"
     inkscape:window-x="3852"
     inkscape:window-y="54"
     inkscape:window-maximized="1"
     inkscape:current-layer="svg5" /><defs
     id="defs2" /><g
     inkscape:label="Avocado"
     inkscape:groupmode="layer"
     id="layer1"><path
       style="fill:#c4e3b1;stroke-width:1.35834"
       d="M 167.63695,510.58298 C 104.46182,502.00327 50.95447,464.09726 23.340261,408.35943 2.2503166,365.79049 -5.1954413,315.45456 3.668126,275.36888 17.428922,213.13538 61.971991,149.54714 122.59165,105.59753 176.59031,66.44819 269.03433,26.284189 344.59121,9.145766 398.83605,-3.1584898 445.07069,-3.0418111 469.41524,9.4607725 c 12.5895,6.4655645 19.55506,14.1674835 26.36893,29.1564835 7.34152,16.149693 10.62056,26.708273 13.20256,42.512475 6.19803,37.937509 2.80473,84.783939 -9.90467,136.739939 -26.99498,110.35534 -87.21748,203.43563 -162.46533,251.10749 -24.21076,15.33826 -59.00918,30.22446 -85.86598,36.73208 -23.58168,5.71401 -60.83949,7.89879 -83.1138,4.87374 z"
       id="path369" /><path
       style="fill:#a5d287;stroke-width:1.35834"
       d="M 166.19884,509.95691 C 83.18157,497.78226 21.460714,437.6903 4.3603508,352.38953 0.30390066,332.15496 -0.58579181,301.8409 2.3681577,284.51043 12.593754,224.51809 54.116632,159.83168 111.33559,114.75551 162.39374,74.532737 256.47681,31.080023 333.98051,11.925895 379.29601,0.72669686 422.68087,-2.7635997 448.01916,2.75152 c 16.05403,3.4943099 28.38589,9.712401 36.59727,18.453432 6.83285,7.273587 17.87274,31.375888 21.5827,47.119371 11.41779,48.452277 5.02747,115.651487 -17.62523,185.343217 -28.04329,86.27607 -75.87062,158.88662 -132.82486,201.65223 -57.15318,42.91501 -128.75252,63.55324 -189.5502,54.63714 z m 15.0672,-145.99141 c 31.60165,-6.94401 64.12941,-24.23739 92.15206,-48.99264 13.75944,-12.1551 45.70373,-45.43693 59.15286,-61.62964 34.08666,-41.04027 60.65811,-84.26287 70.27693,-114.31642 4.2553,-13.29544 5.61416,-27.71381 3.48799,-37.0096 C 398.49166,67.721718 343.42053,64.956952 257.05294,94.522679 219.1907,107.48385 168.91397,131.79838 143.4128,149.48064 c -39.57276,27.43937 -68.163417,65.24694 -78.073279,103.24215 -3.99144,15.3035 -4.945443,38.74168 -2.064749,50.72719 7.83372,32.5932 31.967448,54.92855 66.856728,61.87473 12.5793,2.50444 36.43747,1.87026 51.13454,-1.35921 z m -46.23613,-50.34208 c -11.29483,-2.58167 -20.37372,-6.37701 -23.43578,-9.7971 -4.35958,-4.86931 -9.57984,-20.05249 -11.751549,-34.17947 -1.997636,-12.99466 -1.020364,-35.62371 2.055839,-47.60382 5.40474,-21.04846 20.20412,-44.74333 37.17232,-59.51554 42.98454,-37.42159 98.57955,-39.72145 141.82844,-5.86716 11.53668,9.03066 15.88038,13.83113 18.52619,20.47441 7.55473,18.96879 -7.65347,53.15816 -37.65273,84.64662 -28.13188,29.52839 -56.18396,45.37457 -89.70685,50.67403 -12.33011,1.94921 -31.03705,2.53917 -37.03588,1.16803 z"
       id="path367" /><path
       style="fill:#a1b58b;stroke-width:1.35834"
       d="M 166.19884,509.95691 C 122.28766,503.51725 85.28961,484.64285 56.100493,453.79071 40.314141,437.10494 31.153952,423.83893 21.746155,404.03789 8.2018281,375.5305 2.1319768,350.72542 0.83758961,318.59286 -0.45796074,286.43141 4.7287383,262.47667 20.343361,228.50557 45.130458,174.57889 88.182326,126.81885 142.70081,92.767058 196.23336,59.331061 272.37559,27.150827 333.98051,11.925895 379.29601,0.72669686 422.68087,-2.7635997 448.01916,2.75152 c 16.05403,3.4943099 28.38589,9.712401 36.59727,18.453432 6.83285,7.273587 17.87274,31.375888 21.5827,47.119371 11.41779,48.452277 5.02747,115.651487 -17.62523,185.343217 -36.14415,111.19858 -101.15029,193.63244 -183.00261,232.06443 -46.61627,21.88766 -96.35677,30.53328 -139.37245,24.22494 z m 25.97072,-102.28315 c 29.92806,-5.23499 58.00461,-17.34414 86.98921,-37.51761 30.98187,-21.56361 49.27787,-37.49632 77.36947,-67.37576 C 428.68618,226.03012 481.52794,124.52338 477.33596,70.713988 475.73619,50.178814 468.69928,37.694682 454.13465,29.55265 442.78823,23.209695 430.22518,20.791435 408.91856,20.849023 365.27944,20.966976 310.94739,34.525474 246.44225,61.394795 162.65127,96.297552 112.67183,129.50252 76.908366,174.02847 34.693437,226.58656 15.63374,285.20111 26.357841,329.48717 c 8.057272,33.27317 37.863777,61.93035 76.839979,73.87707 10.13819,3.1075 28.38046,6.78829 37.80061,7.62714 10.73128,0.9556 36.17045,-0.69371 51.17113,-3.31762 z M 131.0509,312.5732 c -17.51333,-4.3055 -21.47861,-7.77648 -26.34497,-23.06088 -4.986857,-15.66286 -6.588171,-27.861 -5.830302,-44.41268 1.482922,-32.38631 16.723032,-62.61369 42.461592,-84.21877 12.69921,-10.65978 30.80949,-20.41625 45.6251,-24.57941 15.24138,-4.2828 39.83204,-4.33346 53.89406,-0.11101 25.22462,7.57426 52.13924,26.04212 58.13738,39.89181 14.24641,32.89498 -41.14171,106.30711 -96.66292,128.11828 -6.37712,2.5052 -16.36958,5.58453 -22.20546,6.84292 -14.9401,3.22155 -39.12613,3.97549 -49.07448,1.52977 z"
       id="path365" /><path
       style="fill:#98c579;stroke-width:1.35834"
       d="M 172.54538,510.63715 C 128.51961,505.25586 88.808649,486.74668 59.861387,458.11544 50.768508,449.12184 37.848356,432.63952 30.65815,420.86069 7.1548785,382.35819 -4.2868034,327.16588 2.5424384,285.23633 13.028049,220.85774 59.740055,151.6149 123.75604,105.55716 c 28.58072,-20.563038 67.8375,-41.499011 113.56163,-60.563406 101.2778,-42.2271362 191.25589,-55.75793 232.27776,-34.92964 3.15479,1.6018 9.0793,6.117207 13.16557,10.034236 12.06501,11.565332 22.12416,36.711832 26.357,65.889032 10.74355,74.055588 -16.27385,184.774988 -65.17251,267.082118 -38.15997,64.23153 -84.75619,107.9499 -143.78658,134.90609 -40.81512,18.63821 -89.62197,27.3053 -127.61353,22.66156 z m 19.62418,-102.96339 c 29.92806,-5.23499 58.00461,-17.34414 86.98921,-37.51761 30.98187,-21.56361 49.27787,-37.49632 77.36947,-67.37576 C 428.68618,226.03012 481.52794,124.52338 477.33596,70.713988 475.73619,50.178814 468.69928,37.694682 454.13465,29.55265 442.78823,23.209695 430.22518,20.791435 408.91856,20.849023 365.27944,20.966976 310.94739,34.525474 246.44225,61.394795 162.65127,96.297552 112.67183,129.50252 76.908366,174.02847 34.693437,226.58656 15.63374,285.20111 26.357841,329.48717 c 8.057272,33.27317 37.863777,61.93035 76.839979,73.87707 10.13819,3.1075 28.38046,6.78829 37.80061,7.62714 10.73128,0.9556 36.17045,-0.69371 51.17113,-3.31762 z m -56.47648,-94.43607 c -23.16362,-4.48124 -27.60437,-8.95471 -33.90891,-34.15876 -3.726905,-14.89932 -3.488509,-42.4675 0.49241,-56.94101 6.86164,-24.94695 23.92904,-49.99075 44.62506,-65.48046 45.96521,-34.40213 104.57837,-30.56886 144.27425,9.43545 10.33458,10.41488 12.15798,17.82887 8.29991,33.74771 -4.47792,18.47649 -17.78675,40.53361 -36.53864,60.55662 -25.67759,27.41815 -53.10965,43.97295 -83.69476,50.50839 -12.17496,2.60153 -35.65662,3.85898 -43.54932,2.33206 z"
       id="path363" /><path
       style="fill:#8da96e;stroke-width:1.35834"
       d="M 172.54538,510.63715 C 128.51961,505.25586 88.808649,486.74668 59.861387,458.11544 50.768508,449.12184 37.848356,432.63952 30.65815,420.86069 7.1548785,382.35819 -4.2868034,327.16588 2.5424384,285.23633 13.028049,220.85774 59.740055,151.6149 123.75604,105.55716 c 28.58072,-20.563038 67.8375,-41.499011 113.56163,-60.563406 101.2778,-42.2271362 191.25589,-55.75793 232.27776,-34.92964 3.15479,1.6018 9.0793,6.117207 13.16557,10.034236 12.06501,11.565332 22.12416,36.711832 26.357,65.889032 10.74355,74.055588 -16.27385,184.774988 -65.17251,267.082118 -38.15997,64.23153 -84.75619,107.9499 -143.78658,134.90609 -40.81512,18.63821 -89.62197,27.3053 -127.61353,22.66156 z m 16.88784,-102.02517 c 35.8788,-6.75447 58.70611,-16.58741 91.50659,-39.41676 10.93524,-7.611 26.74606,-19.68974 35.13514,-26.84167 19.21236,-16.37904 55.38867,-54.16542 71.89918,-75.09914 42.35046,-53.69622 75.54011,-115.70497 86.19873,-161.0464 3.86558,-16.444101 4.11698,-40.739544 0.53986,-52.174531 -2.72231,-8.70245 -10.01611,-18.494115 -17.28714,-23.20734 C 429.60668,12.793358 366.00771,18.217025 287.5587,45.312242 225.5395,66.732827 157.66952,101.17604 121.6351,129.51651 61.164901,177.07531 20.020958,252.27674 23.443282,308.988 c 1.783278,29.55067 10.665282,48.34532 32.213449,68.16485 18.505917,17.02134 52.347119,30.89492 82.689029,33.89929 10.5096,1.04063 40.10748,-0.3731 51.08746,-2.44016 z m -53.74014,-95.37429 c -23.16362,-4.48124 -27.60437,-8.95471 -33.90891,-34.15876 -3.726905,-14.89932 -3.488509,-42.4675 0.49241,-56.94101 6.86164,-24.94695 23.92904,-49.99075 44.62506,-65.48046 45.96521,-34.40213 104.57837,-30.56886 144.27425,9.43545 10.33458,10.41488 12.15798,17.82887 8.29991,33.74771 -4.47792,18.47649 -17.78675,40.53361 -36.53864,60.55662 -25.67759,27.41815 -53.10965,43.97295 -83.69476,50.50839 -12.17496,2.60153 -35.65662,3.85898 -43.54932,2.33206 z"
       id="path361" /><path
       style="fill:#6f9a53;stroke-width:1.35834"
       d="M 174.49046,510.67505 C 105.23989,503.19451 49.471101,463.53912 20.950094,401.49744 7.1092671,371.38953 1.3273755,345.13672 1.1886592,311.77024 1.0958156,289.43752 2.9616963,277.42644 9.9054925,255.65815 29.556288,194.05436 77.175198,135.06133 139.61631,94.965013 204.00932,53.615274 300.35917,16.369968 374.40462,4.20449 c 26.18024,-4.30134562 61.23927,-4.35832031 77.46736,-0.1258963 24.7977,6.4674523 35.99648,16.5553583 46.18453,41.6031833 9.94301,24.445396 12.16829,38.156311 12.25456,75.505083 0.0452,19.58954 -0.5985,35.98445 -1.72062,43.82027 -16.0643,112.17858 -67.0477,215.23018 -136.75138,276.41255 -41.55191,36.47215 -94.5896,61.29367 -144.62872,67.68591 -17.14678,2.19041 -40.52784,2.88646 -52.71989,1.56946 z m 7.7258,-100.7574 c 56.43357,-7.88042 108.12638,-38.47387 166.87277,-98.76063 61.66399,-63.28085 108.62625,-140.00489 125.06688,-204.32648 4.21778,-16.501447 4.24508,-44.262808 0.0544,-55.258841 -5.46984,-14.352023 -17.41129,-23.950353 -35.7689,-28.750345 -12.22706,-3.197032 -44.83308,-3.152723 -65.33395,0.08878 C 289.598,36.114274 169.38296,88.446742 113.14535,136.07782 100.17487,147.06331 76.125906,173.21138 66.060372,187.27259 22.669204,247.88853 11.014483,313.73893 36.373946,355.00402 c 10.706818,17.4222 31.646647,34.7632 52.931602,43.83448 9.974016,4.25076 31.293352,10.05973 42.508962,11.58259 13.53383,1.83762 35.18558,1.62136 50.40175,-0.50344 z m -46.5887,-96.81215 c -10.60506,-1.67927 -22.00049,-6.51412 -25.1027,-10.65058 -4.10213,-5.46974 -9.29077,-24.4952 -10.964431,-40.20399 -5.065308,-47.54222 20.748941,-93.35753 65.975241,-117.09334 17.43982,-9.1528 43.34197,-13.94007 61.34346,-11.33755 23.36652,3.37815 46.85216,15.06865 63.54597,31.63144 8.1487,8.08474 10.3447,13.2424 10.17614,23.90024 -0.58297,36.85998 -50.28605,94.93155 -97.73968,114.19608 -19.49191,7.91304 -50.12213,12.2673 -67.234,9.5577 z"
       id="path359" /><path
       style="fill:#8a6c50;stroke-width:1.35834"
       d="M 168.85151,509.79543 C 143.91887,505.8403 119.68388,498.19945 101.41515,488.53399 40.978921,456.55891 1.524826,387.18483 1.2824935,312.4658 1.1882308,283.40048 6.9898436,259.0524 21.566513,227.33834 46.762745,172.51956 89.940478,125.56135 147.6989,90.162256 183.63871,68.135395 248.66297,38.757425 291.53771,25.175854 344.25548,8.4762772 380.92128,1.5280582 416.87659,1.4239663 c 20.66749,-0.059832 24.64431,0.3200882 36.29202,3.4671163 23.3436,6.3070744 32.69119,14.1763254 42.30078,35.6108564 11.82856,26.384022 16.66653,56.402531 15.13365,93.900561 -4.38567,107.28334 -57.12834,229.2117 -128.81136,297.78086 -43.34134,41.4586 -98.26872,68.93219 -152.80618,76.43062 -13.60658,1.87079 -51.13993,2.60821 -60.13399,1.18145 z m 25.11352,-101.30704 c 38.22191,-7.94915 67.93302,-22.85192 108.18338,-54.26362 60.07124,-46.88009 117.77145,-119.59825 151.24373,-190.60876 18.20528,-38.622 25.15436,-64.633207 24.29579,-90.942018 C 477.24819,59.198753 476.78772,56.900949 472.84301,48.496715 464.03759,29.736754 448.46567,21.759558 417.39667,20.092616 362.9713,17.172535 275.14693,42.868018 190.73608,86.408543 136.97862,114.13753 103.6762,139.34377 77.257962,172.2989 26.919357,235.09325 9.8795878,303.1954 32.973348,349.28944 c 15.019107,29.97741 48.600635,51.8774 92.772202,60.50086 13.94538,2.7225 52.39734,1.98867 68.21948,-1.30191 z M 135.62756,313.1055 c -10.60506,-1.67927 -22.00049,-6.51412 -25.1027,-10.65058 -4.10213,-5.46974 -9.29077,-24.4952 -10.964431,-40.20399 -5.065308,-47.54222 20.748941,-93.35753 65.975241,-117.09334 17.43982,-9.1528 43.34197,-13.94007 61.34346,-11.33755 23.36652,3.37815 46.85216,15.06865 63.54597,31.63144 8.1487,8.08474 10.3447,13.2424 10.17614,23.90024 -0.58297,36.85998 -50.28605,94.93155 -97.73968,114.19608 -19.49191,7.91304 -50.12213,12.2673 -67.234,9.5577 z"
       id="path357" /><path
       style="fill:#558636;stroke-width:1.35834"
       d="M 168.85151,509.79543 C 143.91887,505.8403 119.68388,498.19945 101.41515,488.53399 40.978921,456.55891 1.524826,387.18483 1.2824935,312.4658 1.1882308,283.40048 6.9898436,259.0524 21.566513,227.33834 46.762745,172.51956 89.940478,125.56135 147.6989,90.162256 183.63871,68.135395 248.66297,38.757425 291.53771,25.175854 344.25548,8.4762772 380.92128,1.5280582 416.87659,1.4239663 c 20.66749,-0.059832 24.64431,0.3200882 36.29202,3.4671163 23.3436,6.3070744 32.69119,14.1763254 42.30078,35.6108564 11.82856,26.384022 16.66653,56.402531 15.13365,93.900561 -4.38567,107.28334 -57.12834,229.2117 -128.81136,297.78086 -43.34134,41.4586 -98.26872,68.93219 -152.80618,76.43062 -13.60658,1.87079 -51.13993,2.60821 -60.13399,1.18145 z m 25.11352,-101.30704 c 38.22191,-7.94915 67.93302,-22.85192 108.18338,-54.26362 60.07124,-46.88009 117.77145,-119.59825 151.24373,-190.60876 18.20528,-38.622 25.15436,-64.633207 24.29579,-90.942018 C 477.24819,59.198753 476.78772,56.900949 472.84301,48.496715 464.03759,29.736754 448.46567,21.759558 417.39667,20.092616 362.9713,17.172535 275.14693,42.868018 190.73608,86.408543 136.97862,114.13753 103.6762,139.34377 77.257962,172.2989 26.919357,235.09325 9.8795878,303.1954 32.973348,349.28944 c 15.019107,29.97741 48.600635,51.8774 92.772202,60.50086 13.94538,2.7225 52.39734,1.98867 68.21948,-1.30191 z m -65.8975,-97.47651 c -12.55154,-3.54492 -16.87443,-6.67707 -20.1129,-14.5728 -8.472839,-20.65762 -10.750001,-51.1469 -5.4449,-72.90274 3.34379,-13.7127 11.38363,-30.58404 19.96403,-41.89384 40.26489,-53.0731 110.07104,-63.44092 159.02334,-23.61862 15.25958,12.41355 18.66181,17.9686 18.66181,30.47035 0,19.6329 -13.12081,44.96168 -36.37588,70.22103 -27.18391,29.52679 -55.62686,46.3612 -88.20197,52.20374 -15.17866,2.72236 -38.04497,2.76707 -47.51353,0.0929 z"
       id="path355" /><path
       style="fill:#487325;stroke-width:1.35834"
       d="M 167.52518,509.18691 C 122.61004,503.14027 77.276013,479.38003 51.064995,448.14839 22.911113,414.60172 6.8031763,375.37609 2.4263441,329.7048 -0.45312094,299.6582 2.5365627,276.5557 13.040256,247.68699 35.664678,185.50522 82.854813,130.11095 146.30378,91.255231 214.25266,49.643798 306.04246,15.142829 377.85102,4.2237209 c 26.27506,-3.99534808 63.4367,-3.33165471 78.78888,1.407141 11.15171,3.4422278 22.48271,10.1464741 28.79464,17.0370291 4.46107,4.870018 13.30393,23.742721 17.68871,37.751785 6.47563,20.68923 9.22836,55.786964 6.67538,85.111784 -8.40347,96.5257 -48.36496,195.53081 -106.40394,263.61714 -46.67174,54.75125 -109.75701,90.21154 -176.91752,99.44553 -16.25392,2.23478 -44.63519,2.52015 -58.95199,0.59278 z m 19.56473,-99.42654 c 40.14119,-6.25152 75.74035,-23.6485 119.03751,-58.17257 90.5228,-72.18057 172.02098,-202.35751 172.11353,-274.91676 0.0373,-29.255272 -10.41948,-45.004246 -35.33929,-53.224458 -8.46141,-2.791138 -12.14136,-3.110887 -35.30943,-3.06801 -28.71344,0.05314 -42.79324,2.07071 -78.08517,11.189251 -70.66631,18.258385 -162.66643,61.348989 -208.88722,97.837647 -48.857743,38.57041 -85.149162,94.53342 -95.70843,147.58678 -2.729394,13.71339 -2.731131,38.49461 -0.0036,50.83009 3.905325,17.66191 10.250899,29.02141 24.44833,43.76603 18.980672,19.71224 40.501118,30.89209 72.35157,37.58661 15.57524,3.27369 46.35119,3.54924 65.38217,0.58539 z m -59.02238,-98.74849 c -12.55154,-3.54492 -16.87443,-6.67707 -20.1129,-14.5728 -8.472839,-20.65762 -10.750001,-51.1469 -5.4449,-72.90274 3.34379,-13.7127 11.38363,-30.58404 19.96403,-41.89384 40.26489,-53.0731 110.07104,-63.44092 159.02334,-23.61862 15.25958,12.41355 18.66181,17.9686 18.66181,30.47035 0,19.6329 -13.12081,44.96168 -36.37588,70.22103 -27.18391,29.52679 -55.62686,46.3612 -88.20197,52.20374 -15.17866,2.72236 -38.04497,2.76707 -47.51353,0.0929 z"
       id="path353" /><path
       style="fill:#7a3123;stroke-width:1.35834"
       d="M 168.85151,509.2775 C 95.6997,498.66089 40.273626,453.4593 14.516633,383.41289 2.5746127,350.93644 -1.5980206,312.69996 3.6213355,283.57238 14.522642,222.7356 55.813297,159.8254 115.27371,113.4595 176.60763,65.63266 291.68906,17.860665 378.329,4.2613757 c 16.01838,-2.5142996 23.0639,-2.897649 43.10596,-2.3454066 33.50584,0.9232276 46.76001,5.2259171 61.92324,20.1020939 4.85543,4.763524 7.62796,9.482334 12.99709,22.120919 8.41087,19.798543 11.57571,33.250321 13.60112,57.809758 5.29733,64.23361 -18.53132,161.7494 -56.61868,231.70486 -20.32914,37.33875 -37.86215,61.87605 -62.90308,88.03234 -43.03317,44.94992 -96.03185,74.48235 -152.6136,85.0408 -17.23287,3.21576 -54.81139,4.60554 -68.96954,2.55076 z m 30.27477,-101.37772 c 30.37616,-7.07343 54.8253,-18.40106 83.98853,-38.91305 26.22632,-18.44631 44.19411,-34.14863 70.201,-61.34964 26.41951,-27.63255 40.35404,-44.74739 60.06161,-73.76955 36.05969,-53.10294 57.90425,-101.18526 63.97463,-140.815247 4.9116,-32.064915 -3.08983,-54.340129 -23.33802,-64.970862 -13.03914,-6.845829 -18.47956,-7.75213 -46.4218,-7.733243 -29.28074,0.0198 -42.12371,1.797004 -75.54042,10.453287 C 270.36662,46.78044 193.42659,80.049597 145.03665,111.66752 99.20899,141.61127 64.005929,180.83177 41.711581,226.78427 c -21.996859,45.33932 -25.348185,90.5092 -9.140158,123.19291 2.771599,5.58896 8.621705,13.05794 17.499836,22.34246 12.097653,12.65142 14.753232,14.67975 28.589318,21.83666 15.127911,7.82511 27.883193,12.2373 45.758633,15.82838 14.32869,2.87856 58.71104,1.63996 74.70707,-2.0849 z m -71.05875,-96.8879 c -12.55154,-3.54492 -16.87443,-6.67707 -20.1129,-14.5728 -8.472839,-20.65762 -10.750001,-51.1469 -5.4449,-72.90274 3.34379,-13.7127 11.38363,-30.58404 19.96403,-41.89384 40.26489,-53.0731 110.07104,-63.44092 159.02334,-23.61862 15.25958,12.41355 18.66181,17.9686 18.66181,30.47035 0,19.6329 -13.12081,44.96168 -36.37588,70.22103 -27.18391,29.52679 -55.62686,46.3612 -88.20197,52.20374 -15.17866,2.72236 -38.04497,2.76707 -47.51353,0.0929 z"
       id="path351" /><path
       style="fill:#3c701b;stroke-width:1.35834"
       d="M 168.85151,509.2775 C 95.6997,498.66089 40.273626,453.4593 14.516633,383.41289 2.5746127,350.93644 -1.5980206,312.69996 3.6213355,283.57238 14.522642,222.7356 55.813297,159.8254 115.27371,113.4595 176.60763,65.63266 291.68906,17.860665 378.329,4.2613757 c 16.01838,-2.5142996 23.0639,-2.897649 43.10596,-2.3454066 33.50584,0.9232276 46.76001,5.2259171 61.92324,20.1020939 4.85543,4.763524 7.62796,9.482334 12.99709,22.120919 8.41087,19.798543 11.57571,33.250321 13.60112,57.809758 5.29733,64.23361 -18.53132,161.7494 -56.61868,231.70486 -20.32914,37.33875 -37.86215,61.87605 -62.90308,88.03234 -43.03317,44.94992 -96.03185,74.48235 -152.6136,85.0408 -17.23287,3.21576 -54.81139,4.60554 -68.96954,2.55076 z m 30.27477,-101.37772 c 30.37616,-7.07343 54.8253,-18.40106 83.98853,-38.91305 26.22632,-18.44631 44.19411,-34.14863 70.201,-61.34964 26.41951,-27.63255 40.35404,-44.74739 60.06161,-73.76955 36.05969,-53.10294 57.90425,-101.18526 63.97463,-140.815247 4.9116,-32.064915 -3.08983,-54.340129 -23.33802,-64.970862 -13.03914,-6.845829 -18.47956,-7.75213 -46.4218,-7.733243 -29.28074,0.0198 -42.12371,1.797004 -75.54042,10.453287 C 270.36662,46.78044 193.42659,80.049597 145.03665,111.66752 99.20899,141.61127 64.005929,180.83177 41.711581,226.78427 c -21.996859,45.33932 -25.348185,90.5092 -9.140158,123.19291 2.771599,5.58896 8.621705,13.05794 17.499836,22.34246 12.097653,12.65142 14.753232,14.67975 28.589318,21.83666 15.127911,7.82511 27.883193,12.2373 45.758633,15.82838 14.32869,2.87856 58.71104,1.63996 74.70707,-2.0849 z m -71.75866,-97.3573 c -4.94374,-1.35219 -10.61383,-3.704 -12.6002,-5.22629 -8.16024,-6.25369 -13.54558,-24.78571 -14.5143,-49.94656 -0.597605,-15.52166 -0.290306,-19.84555 2.12562,-29.90907 15.10571,-62.92253 80.62717,-104.56935 138.75816,-88.19761 22.70344,6.39407 49.86775,24.99868 56.6435,38.79466 2.20099,4.48138 2.57901,7.28358 2.06426,15.30232 -2.51593,39.19301 -54.8879,97.02161 -103.25084,114.00854 -21.80062,7.65721 -51.91743,9.90817 -69.2262,5.17401 z m 88.38712,-72.51152 c 29.98444,-15.48229 40.48144,-51.75506 20.91603,-72.2761 -22.18461,-23.26816 -67.12419,-8.93846 -79.10275,25.22316 -6.18046,17.62601 -0.83821,37.38435 12.43414,45.98776 8.49003,5.5034 13.55298,6.72574 25.51607,6.16025 9.59493,-0.45356 12.81979,-1.2655 20.23651,-5.09507 z"
       id="path349" /><path
       style="fill:#652012;stroke-width:1.35834"
       d="m 127.36762,310.54248 c -4.94374,-1.35219 -10.61383,-3.704 -12.6002,-5.22629 -8.16024,-6.25369 -13.54558,-24.78571 -14.5143,-49.94656 -0.597605,-15.52166 -0.290306,-19.84555 2.12562,-29.90907 15.10571,-62.92253 80.62717,-104.56935 138.75816,-88.19761 22.70344,6.39407 49.86775,24.99868 56.6435,38.79466 2.20099,4.48138 2.57901,7.28358 2.06426,15.30232 -2.51593,39.19301 -54.8879,97.02161 -103.25084,114.00854 -21.80062,7.65721 -51.91743,9.90817 -69.2262,5.17401 z m 88.38712,-72.51152 c 29.98444,-15.48229 40.48144,-51.75506 20.91603,-72.2761 -22.18461,-23.26816 -67.12419,-8.93846 -79.10275,25.22316 -6.18046,17.62601 -0.83821,37.38435 12.43414,45.98776 8.49003,5.5034 13.55298,6.72574 25.51607,6.16025 9.59493,-0.45356 12.81979,-1.2655 20.23651,-5.09507 z"
       id="path347"
       sodipodi:nodetypes="sssssssssssssss" /></g></svg>
